<svg id="Layer_1" data-name="Layer 1" xmlns="http://www.w3.org/2000/svg" viewBox="0 0 52 52"><defs><style>.cls-1{fill:#ff682c;}.cls-2{fill:#fff;}</style></defs><title>Social_Media_Icons</title><path class="cls-1" d="M52,26A26,26,0,1,0,22.37,51.74V34H16.28v-7.5h6.09V22.75c0-5.44,4-9.84,9.06-9.84h6V20.4h-6c-.74,0-1.54,1-1.54,2.27v3.87h7.57V34H29.89V51.71A26,26,0,0,0,52,26Z"/><path class="cls-2" d="M37.47,34v-7.5H29.89V22.67c0-1.3.8-2.27,1.54-2.27h6V12.91h-6c-5,0-9.06,4.41-9.06,9.84v3.79H16.28V34h6.09V51.74a25.94,25.94,0,0,0,7.53,0V34Z"/></svg>