<svg id="Layer_1" data-name="Layer 1" xmlns="http://www.w3.org/2000/svg" viewBox="0 0 52 52"><defs><style>.cls-1{fill:#ff682c;}.cls-2{fill:#fff;}</style></defs><title>Social_Media_Icons</title><circle class="cls-1" cx="26" cy="26" r="26"/><path class="cls-2" d="M42,16.35a12.76,12.76,0,0,1-3.67,1,6.4,6.4,0,0,0,2.81-3.53,12.78,12.78,0,0,1-4.05,1.55,6.39,6.39,0,0,0-10.88,5.82,18.13,18.13,0,0,1-13.16-6.67,6.39,6.39,0,0,0,2,8.52,6.36,6.36,0,0,1-2.89-.8s0,.05,0,.08a6.39,6.39,0,0,0,5.12,6.26,6.4,6.4,0,0,1-2.88.11,6.39,6.39,0,0,0,6,4.43,12.81,12.81,0,0,1-7.93,2.73,13,13,0,0,1-1.52-.09,18.07,18.07,0,0,0,9.79,2.87c11.74,0,18.17-9.73,18.17-18.17q0-.42,0-.83A13,13,0,0,0,42,16.35Z"/></svg>