<svg id="Layer_1" data-name="Layer 1" xmlns="http://www.w3.org/2000/svg" xmlns:xlink="http://www.w3.org/1999/xlink" viewBox="0 0 52 52"><defs><style>.cls-1{fill:none;}.cls-2{fill:#ff682c;}.cls-3{clip-path:url(#clip-path);}.cls-4{fill:#fff;}</style><clipPath id="clip-path"><rect class="cls-1" x="8.26" y="13.47" width="35.49" height="25.05"/></clipPath></defs><title>Social_Media_Icons</title><circle class="cls-2" cx="26" cy="26" r="26"/><g class="cls-3"><path class="cls-4" d="M43.39,18.88A7.72,7.72,0,0,0,42,15.34a5.07,5.07,0,0,0-3.56-1.51c-5-.36-12.42-.36-12.42-.36h0s-7.45,0-12.42.36A5.07,5.07,0,0,0,10,15.34a7.72,7.72,0,0,0-1.41,3.54,54.08,54.08,0,0,0-.35,5.77v2.7a54.08,54.08,0,0,0,.35,5.77A7.72,7.72,0,0,0,10,36.65a6,6,0,0,0,3.91,1.52c2.84.27,12.07.36,12.07.36s7.46,0,12.42-.37A5.07,5.07,0,0,0,42,36.65a7.72,7.72,0,0,0,1.41-3.54,54.16,54.16,0,0,0,.35-5.77v-2.7a54.16,54.16,0,0,0-.35-5.77M20.33,33.15V18.5l14,7.35Z"/></g></svg>