<svg id="Layer_1" data-name="Layer 1" xmlns="http://www.w3.org/2000/svg" viewBox="0 0 52 52"><defs><style>.cls-1{fill:#ff682c;}.cls-2{fill:#fff;}</style></defs><title>Social_Media_Icons</title><circle class="cls-1" cx="26" cy="26" r="26"/><path class="cls-2" d="M7.3,26a13,13,0,0,1,21.59-9.74c-1.06,1.16-2.13,2.31-3.29,3.39-2.27-1.38-5-2.43-7.66-1.5a8.18,8.18,0,1,0,5.51,15.4,7.16,7.16,0,0,0,4.21-4.91c-2.47,0-4.95,0-7.42-.09,0-1.47,0-2.94,0-4.41,4.13,0,8.26,0,12.39,0,.25,3.61-.28,7.47-2.62,10.36-3.21,4.13-9.14,5.35-14,3.72A13,13,0,0,1,7.3,26Z"/><path class="cls-2" d="M39.59,20.45h3.68c0,1.23,0,2.47,0,3.7l3.7,0v3.69l-3.7,0c0,1.24,0,2.47,0,3.71H39.59c0-1.24,0-2.47,0-3.7l-3.7,0V24.17l3.7,0C39.57,22.92,39.58,21.68,39.59,20.45Z"/></svg>