<svg xmlns="http://www.w3.org/2000/svg" viewBox="0 0 1738 66"><defs><style>.cls-1{fill:none;stroke:#fff;stroke-miterlimit:10;opacity:0}.cls-2{fill:#fff}</style></defs><g id="Layer_1" data-name="Layer 1"><path class="cls-1" d="M348 0h172v66H348z"/><path class="cls-2" d="M396.31 18.38a3.78 3.78 0 0 0-2.48.87 2.8 2.8 0 0 0-1.1 2.11q0 2.53 3 3.89l2.28 1a8.26 8.26 0 0 1 3.55 2.81 6.59 6.59 0 0 1 1.31 3.86 6.77 6.77 0 0 1-.7 3.11 5.15 5.15 0 0 1-2.15 2.2 7.7 7.7 0 0 1-3.68.85 11.89 11.89 0 0 1-3.38-.57 12.9 12.9 0 0 1-2.41-.89v-1.17-1.16a22.22 22.22 0 0 0-.23-3.28H392v1.39a4.42 4.42 0 0 0 4.41 4.37 4.62 4.62 0 0 0 3.05-1 3.44 3.44 0 0 0 1.23-2.77q-.1-2.69-3.6-4.37l-2.61-1.32q-4-2.11-4-5.69a5.74 5.74 0 0 1 .9-2.87 4.92 4.92 0 0 1 2.1-1.76 7.06 7.06 0 0 1 2.94-.59 21.63 21.63 0 0 1 3.22.4 1.38 1.38 0 0 1 .56.08h.67V22h-1.46v-.27a4.72 4.72 0 0 0-.24-1.41 2.77 2.77 0 0 0-.92-1.33 2.88 2.88 0 0 0-1.91-.58M406 24.34l-3.25.54v-1.22a38.73 38.73 0 0 0 6.39-1.49l-1.31 16.39-2.84.54a68.51 68.51 0 0 0 1-12.33zm-.56-8.27a2.52 2.52 0 0 1 .55-1.58 1.72 1.72 0 0 1 1.43-.72 2.11 2.11 0 0 1 1.51.62 1.88 1.88 0 0 1 .66 1.41 2.2 2.2 0 0 1-.63 1.54 2.13 2.13 0 0 1-1.54.69 1.73 1.73 0 0 1-1.31-.58 2.17 2.17 0 0 1-.6-1.35M415.64 37.11l3.44-.61V38a20.91 20.91 0 0 0-6.51 1.22c.08-1.06.15-2.11.19-3.15s.1-2.52.16-4.41.13-3.5.21-4.8.17-2.6.31-3.86q.27-2.54.53-4.45t.57-3.62q.31-1.71.72-3.61t1-4.34h4.11v1l-.62.42a4.35 4.35 0 0 0-1.06 1.41 15.2 15.2 0 0 0-1.23 3.39 34.54 34.54 0 0 0-.78 5.15q-.33 3.51-.57 7.71t-.36 7.48c-.09 2.17-.13 3.37-.13 3.6M420.86 24.27l.07 4h-1.2l.15-6.13q1.5.15 5 .31 3.76-.16 5.32-.31l.21.78a4.06 4.06 0 0 0-1.62 1.22 12.84 12.84 0 0 0-1.71 2.45 16.45 16.45 0 0 0-1.33 3.16 11.26 11.26 0 0 0-.51 3.23q.17 3.9 3.19 3.9a5.44 5.44 0 0 0 3.57-1.3 8.66 8.66 0 0 0 2.45-3.41 11.17 11.17 0 0 0 .86-4.3v-5.7h3.19a12.17 12.17 0 0 0-.85 3.83 13 13 0 0 0 .85 3.75 2.46 2.46 0 0 0-.56.07 3.09 3.09 0 0 1-1.24-.47 11.58 11.58 0 0 1-3.7 6.48 10.56 10.56 0 0 1-6.52 2.67h-2.76a16.64 16.64 0 0 1-1.2-2.22 7 7 0 0 1-.33-2.14 9.66 9.66 0 0 1 1-4.06 27.12 27.12 0 0 1 2.22-4 11.49 11.49 0 0 1 1.4-1.84zM450.73 32.67l1.16.14a7 7 0 0 1-.47 2.07 5.89 5.89 0 0 1-6 3.83 4.91 4.91 0 0 1-4.94-3.31A9.64 9.64 0 0 1 440 32a24.23 24.23 0 0 1 .47-3.65 12.48 12.48 0 0 1 1.13-3.17 6.53 6.53 0 0 1 2-2.36 5.34 5.34 0 0 1 3-1 4.79 4.79 0 0 1 2.49.57 3.2 3.2 0 0 1 1.37 1.61 5.54 5.54 0 0 1 .41 2.2 12.53 12.53 0 0 1-.45 2.85 41.77 41.77 0 0 1-7.74 1.53 11 11 0 0 0-.15 1.18q.21 5.2 3.92 5.35a4.11 4.11 0 0 0 2.13-.58 4.44 4.44 0 0 0 1.57-1.53 3.92 3.92 0 0 0 .58-2zm-7.89-3.18l3.29-.44a2.77 2.77 0 0 0 1.81-1.05 3.34 3.34 0 0 0 .65-2 5.91 5.91 0 0 0-.36-2.21 1.53 1.53 0 0 0-1.62-.9c-1.25 0-2.19.81-2.82 2.34a13.24 13.24 0 0 0-1 4.16l.06.11zM465 22.34v2.84h-.23a3 3 0 0 0-.45 0q-1.84 0-3.89 4a33.58 33.58 0 0 0-1.66 3.82c-.47 1.36-.86 2.59-1.15 3.68a14 14 0 0 0-.44 1.89h-1.95l.86-14.22-3.7.68v-1.37a15.78 15.78 0 0 0 3.24-.47 23.18 23.18 0 0 0 3.3-1l-.49 8.53.82-1.84q.77-1.72 1.25-2.7c.31-.65.63-1.25.95-1.79a5.82 5.82 0 0 1 .9-1.22 2.64 2.64 0 0 1 1.9-.88h.45zM468.54 19.05v-1.11l3.77.16 2.49-.1 2.48-.11a9.3 9.3 0 0 1 3.28.56 5.66 5.66 0 0 1 2.44 1.6 3.74 3.74 0 0 1 .89 2.49 4.48 4.48 0 0 1-.67 2.32 4.13 4.13 0 0 1-2 1.71c-.06 0-.13.11-.22.34.11.23.21.34.29.34a4.65 4.65 0 0 1 3.35 1.94 6.41 6.41 0 0 1 1.1 3.41 6.77 6.77 0 0 1-.79 3.32 5.35 5.35 0 0 1-2.34 2.21 8.66 8.66 0 0 1-3.82.83 20.18 20.18 0 0 1-3.4-.37 20.59 20.59 0 0 0-3.44-.37c-.56 0-1.25 0-2.08.11l-1.28.1v-1.19h2q1.79 0 1.79-1.72V24q0-3.82-1-4.6c-.19-.23-.62-.34-1.31-.34zm6.21 9v7.42a1.85 1.85 0 0 0 1 1.68 5.2 5.2 0 0 0 2.58.58 6 6 0 0 0 2.41-.53 3.68 3.68 0 0 0 1.63-1.48 4.64 4.64 0 0 0 .6-2.43 5.23 5.23 0 0 0-.82-2.81 5.05 5.05 0 0 0-2.12-1.81 6.76 6.76 0 0 0-2.93-.63zm0-8.77v7.58h2.09a4 4 0 0 0 2.92-1.16 3.86 3.86 0 0 0 1.2-2.87 3.2 3.2 0 0 0-1.42-2.7 5.84 5.84 0 0 0-3.26-.85zM500.12 36.7a14.07 14.07 0 0 1 1.91-.44l.44.78a23.3 23.3 0 0 0-2.65.64 25.06 25.06 0 0 0-2.47 1.09.48.48 0 0 1-.3.07c-.1 0-.15-.14-.15-.41q.42-2.35.54-3.42a23.39 23.39 0 0 0 .13-2.54v-1.73l-3.22 4.71a8 8 0 0 1-2.35 2.33 5.29 5.29 0 0 1-2.9.92q-2.1-.09-2.1-3.7a12.26 12.26 0 0 1 1.19-4.43 21 21 0 0 1 2.64-4.29 17.36 17.36 0 0 1 3.2-3.19 5 5 0 0 1 2.77-1.23 2.39 2.39 0 0 1 .76.15 2.5 2.5 0 0 0 .7.13l2.66-.28q-.21 2.14-.6 5.87t-.52 5q-.12 1.25-.15 2.38c.07 1.06.25 1.6.53 1.6m-3-13.42a.79.79 0 0 0-.41-.1 3.45 3.45 0 0 0-2 .94 13.48 13.48 0 0 0-2.33 2.51 17 17 0 0 0-1.94 3.42 11.22 11.22 0 0 0-.92 3.59 1.29 1.29 0 0 1-.08.48q.17 2.06 1.69 2.06a3.73 3.73 0 0 0 2.54-1.47 16.23 16.23 0 0 0 2.27-3.46 25.79 25.79 0 0 0 1.62-3.8 6.65 6.65 0 0 0 .34-2.34q0-1.48-.86-1.83M516.29 22a3.39 3.39 0 0 1 2.71 1.65 6.92 6.92 0 0 1 1 3.74 29.87 29.87 0 0 1-1.81 9.23 19.85 19.85 0 0 1-3.61 6.19 14.47 14.47 0 0 1-4.16 3.33 8.43 8.43 0 0 1-3.61 1h-3.44a9.07 9.07 0 0 1-.6-3.18 1.92 1.92 0 0 0 .08-.64 21.18 21.18 0 0 1 .82-4.51h2.54q0-.12-.52 2.07a20 20 0 0 0-.57 3.56 2.53 2.53 0 0 0 .38 1.33 1.53 1.53 0 0 0 1.23.4 7.2 7.2 0 0 0 3.25-.93 11.77 11.77 0 0 0 3.48-2.9 15.45 15.45 0 0 0 2.77-5.12 22.65 22.65 0 0 0 1.08-7.35v-1.16q0-4.06-1.76-4.23a2.08 2.08 0 0 0-1.49.74 7.25 7.25 0 0 0-1.25 1.88 14 14 0 0 0-.88 2.4 11.31 11.31 0 0 0-.38 2.2 5 5 0 0 1-.07.85 16.41 16.41 0 0 0 1 5.55l-2.09.81-5-14.77-2.84.48-.07-1.19a9.79 9.79 0 0 0 4.85-1.52l3.21 8.68a13.47 13.47 0 0 1 .62-2.85 13.89 13.89 0 0 1 1.85-4 3.59 3.59 0 0 1 3-1.8zM400.61 52.51h-6.91v2.62a6.77 6.77 0 0 0 .22 1.86 1 1 0 0 0 1 .76h.86v.63a25.13 25.13 0 0 0-2.78-.14 24.74 24.74 0 0 0-2.74.14v-.67h.94c.73 0 1.1-.44 1.1-1.34v-7.14c0-1.48-.18-2.24-.54-2.3a5 5 0 0 0-.68 0h-.82v-.7c1 .1 1.86.16 2.66.2s1.76-.1 2.7-.2v.7h-.78a1.87 1.87 0 0 0-.78.11.67.67 0 0 0-.36.51 5.32 5.32 0 0 0-.08 1v3.15h6.95v-2.51q0-2.22-.5-2.3a4.47 4.47 0 0 0-.68 0h-.82v-.71q.73.08 2.83.16c1.27-.05 2.14-.11 2.58-.16v.71h-.74a1.77 1.77 0 0 0-.78.14.56.56 0 0 0-.32.36 3.19 3.19 0 0 0-.12.69 1.78 1.78 0 0 1 0 .44v6.58a12.91 12.91 0 0 0 .06 1.33 2.2 2.2 0 0 0 .28.91.79.79 0 0 0 .72.38h.94v.64c-1.18-.1-2-.14-2.62-.14s-1.55 0-2.9.14v-.67h1a.94.94 0 0 0 .83-.34 1.82 1.82 0 0 0 .23-1zM405 55.6a11.9 11.9 0 0 1 .39-3 4.25 4.25 0 0 1 1.41-2.18 4.51 4.51 0 0 1 2.9-.9 1.55 1.55 0 0 1 1.22.55 3.31 3.31 0 0 1 .68 1.37 7.67 7.67 0 0 1 .24 1.72 8.52 8.52 0 0 1-.41 2.7 4 4 0 0 1-1.35 1.95 3.87 3.87 0 0 1-2.46.74h-.38a3.51 3.51 0 0 1-1.24-.35 1.68 1.68 0 0 1-.74-.86 4.64 4.64 0 0 1-.26-1.74m1.54-.81a10.74 10.74 0 0 0 .1 1.52 2.35 2.35 0 0 0 .48 1.11 1.51 1.51 0 0 0 1.14.52 1.72 1.72 0 0 0 1.68-1.17 7.17 7.17 0 0 0 .5-2.83v-.25a6 6 0 0 0-.48-2.47 1.61 1.61 0 0 0-1.56-1.06 1.3 1.3 0 0 0-1.08.83 6.39 6.39 0 0 0-.58 1.86 15.07 15.07 0 0 0-.2 1.94M419.58 50.78l-1.74.29v-.65a20.55 20.55 0 0 0 3.42-.79l-.7 8.76-1.52.29a36.66 36.66 0 0 0 .54-6.59zm-.3-3.41a1.36 1.36 0 0 1 .29-.84.92.92 0 0 1 .77-.38 1.14 1.14 0 0 1 .8.33 1 1 0 0 1 .35.76 1.18 1.18 0 0 1-.34.82 1.14 1.14 0 0 1-.82.37.93.93 0 0 1-.7-.31 1.16 1.16 0 0 1-.32-.72M423 46.44l-.28-.47 1.88-.83a15.46 15.46 0 0 1 1.71 1.46 10.2 10.2 0 0 1 1.45 1.77 8.69 8.69 0 0 1 1 2.23 9 9 0 0 1 .39 2.71 5.9 5.9 0 0 1-.85 3.42 3.15 3.15 0 0 1-.79.72 6.67 6.67 0 0 1-1.41.74 4.46 4.46 0 0 1-1.62.32 1.65 1.65 0 0 1-1.21-.47 2.78 2.78 0 0 1-.7-1.27 7 7 0 0 1-.21-1.77 7.31 7.31 0 0 1 .41-2.25 6.88 6.88 0 0 1 1-2 2.82 2.82 0 0 1 1.36-1l.31-.11a1.43 1.43 0 0 1 .47-.12c.14 0 .24 0 .28.11v.16l-.13.2a2 2 0 0 1-.38.17l-.39.14a1.64 1.64 0 0 0-.73.85 7.46 7.46 0 0 0-.57 1.7 8.73 8.73 0 0 0-.22 1.86 6 6 0 0 0 .33 2.12 1.37 1.37 0 0 0 1.27.92q2.23 0 2.34-4.26a7.7 7.7 0 0 0-.43-2.48 9.86 9.86 0 0 0-1.12-2.3 6.91 6.91 0 0 0-1.32-1.71 2.43 2.43 0 0 0-1.47-.62 1.25 1.25 0 0 0-.34 0M437.24 57.4a7.24 7.24 0 0 1 1-.24l.24.42a13.42 13.42 0 0 0-1.42.34c-.27.1-.71.29-1.31.58h-.16c-.05 0-.08-.07-.08-.22.15-.84.25-1.45.29-1.83a12.79 12.79 0 0 0 .07-1.36v-.92l-1.72 2.52a4.27 4.27 0 0 1-1.26 1.31 2.84 2.84 0 0 1-1.55.49c-.76 0-1.14-.68-1.14-2a6.55 6.55 0 0 1 .63-2.37 11.64 11.64 0 0 1 1.41-2.29 9.55 9.55 0 0 1 1.76-1.7 2.68 2.68 0 0 1 1.48-.66 1.27 1.27 0 0 1 .41.08 1.41 1.41 0 0 0 .37.07l1.42-.15c-.07.76-.18 1.81-.32 3.13s-.24 2.21-.28 2.66-.07.87-.08 1.27c0 .57.13.85.28.85m-1.6-7.17l-.22-.05a1.86 1.86 0 0 0-1.06.5 7.32 7.32 0 0 0-1.28 1.34 8.86 8.86 0 0 0-1 1.83 5.93 5.93 0 0 0-.49 1.92v.26c.07.73.36 1.1.9 1.1a2 2 0 0 0 1.36-.78 9 9 0 0 0 1.25-1.85 13.74 13.74 0 0 0 .87-2 3.55 3.55 0 0 0 .18-1.25c0-.53-.15-.85-.46-1M446.29 49.52a1.8 1.8 0 0 1 1.46.9 3.68 3.68 0 0 1 .52 2 16.13 16.13 0 0 1-1 4.93 10.65 10.65 0 0 1-1.94 3.31 7.63 7.63 0 0 1-2.22 1.78 4.47 4.47 0 0 1-1.93.55h-1.84a4.87 4.87 0 0 1-.32-1.7 1 1 0 0 0 0-.35 11.1 11.1 0 0 1 .44-2.41h1.36s-.09.32-.28 1.1a10.44 10.44 0 0 0-.31 1.9 1.33 1.33 0 0 0 .21.71.82.82 0 0 0 .66.21 3.88 3.88 0 0 0 1.74-.49 6.37 6.37 0 0 0 1.86-1.55 8.3 8.3 0 0 0 1.48-2.73 12.21 12.21 0 0 0 .58-3.93v-.64c0-1.45-.32-2.2-.94-2.26a1.1 1.1 0 0 0-.8.39 3.74 3.74 0 0 0-.67 1 7.06 7.06 0 0 0-.47 1.28 5.75 5.75 0 0 0-.21 1.18 2.7 2.7 0 0 1 0 .45 8.81 8.81 0 0 0 .54 3l-1.12.43-2.7-7.89-1.52.26v-.64a5.23 5.23 0 0 0 2.6-.81l1.72 4.64a7.4 7.4 0 0 1 .33-1.52 7.49 7.49 0 0 1 1-2.12 1.91 1.91 0 0 1 1.61-1zM457.66 56.42L461 48a3.52 3.52 0 0 0 .28-1c0-.33-.29-.49-.87-.49h-.78v-.61c.53.07 1.26.11 2.21.13a21.72 21.72 0 0 0 2.2-.13v.71h-.44a1.23 1.23 0 0 0-.68.16 1.16 1.16 0 0 0-.4.43c-.1.18-.27.52-.52 1s-.61 1.32-1.13 2.49-1.55 3.75-2.07 5-.91 2.21-1.16 2.93h-.75c-.26-.7-.57-1.45-.92-2.25s-1.37-3-1.77-3.84-.81-1.73-1.25-2.65-.78-1.63-1-2.16a3.5 3.5 0 0 0-.44-.82.78.78 0 0 0-.66-.31h-.4v-.71a18.3 18.3 0 0 0 2.44.2q1.35-.06 2.17-.16v.7h-.57a2 2 0 0 0-.76.11.52.52 0 0 0-.3.45 3.17 3.17 0 0 0 .27.82zM465.25 50.78l-1.73.29v-.65a20.45 20.45 0 0 0 3.41-.79l-.69 8.76-1.53.29a36 36 0 0 0 .54-6.59zm-.3-3.41a1.34 1.34 0 0 1 .29-.84.92.92 0 0 1 .77-.38 1.13 1.13 0 0 1 .81.33 1 1 0 0 1 .35.76 1.17 1.17 0 0 1-.34.82 1.14 1.14 0 0 1-.82.37.92.92 0 0 1-.7-.31 1.19 1.19 0 0 1-.32-.72M485.46 57.4a7.32 7.32 0 0 1 1-.24l.24.42a13 13 0 0 0-1.42.34c-.27.1-.71.29-1.32.58h-.16q-.08 0-.08-.22c.15-.84.25-1.45.29-1.83a11.94 11.94 0 0 0 .07-1.36v-.92l-1.72 2.52a4.27 4.27 0 0 1-1.25 1.31 2.84 2.84 0 0 1-1.55.49c-.76 0-1.14-.68-1.14-2a6.55 6.55 0 0 1 .64-2.37 11.48 11.48 0 0 1 1.41-2.29 9.33 9.33 0 0 1 1.71-1.71 2.66 2.66 0 0 1 1.48-.66 1.27 1.27 0 0 1 .41.08 1.38 1.38 0 0 0 .37.07l1.42-.15c-.07.76-.18 1.81-.32 3.13s-.24 2.21-.28 2.66-.07.87-.08 1.27c0 .57.13.85.28.85m-1.6-7.17l-.22-.05a1.85 1.85 0 0 0-1.06.5 7.21 7.21 0 0 0-1.24 1.35 9 9 0 0 0-1 1.83 5.93 5.93 0 0 0-.49 1.92v.26c.06.73.36 1.1.9 1.1a2 2 0 0 0 1.35-.78 8.69 8.69 0 0 0 1.25-1.85 13.47 13.47 0 0 0 .87-2 3.56 3.56 0 0 0 .18-1.25c0-.53-.15-.85-.46-1M492.43 50.19l-.26-.06a1.82 1.82 0 0 0-1 .45A5.51 5.51 0 0 0 490 51.8a7.18 7.18 0 0 0-.91 1.81 6.33 6.33 0 0 0-.36 2.12c0 1 .24 1.52.74 1.52.28 0 .63-.23 1-.7a10.68 10.68 0 0 0 1.21-1.69 12.74 12.74 0 0 0 .9-1.78 4.55 4.55 0 0 0 .28-1.67c0-.7-.15-1.11-.48-1.23m.12 5.79V54.5l-1.5 2.3a4.12 4.12 0 0 1-1.17 1.2 2.56 2.56 0 0 1-1.45.47 1.06 1.06 0 0 1-1-.59 3 3 0 0 1-.28-1.37 6.84 6.84 0 0 1 .58-2.35 11.06 11.06 0 0 1 1.31-2.28 8.58 8.58 0 0 1 1.64-1.69 2.62 2.62 0 0 1 1.51-.64 1.59 1.59 0 0 1 .43.07 1.65 1.65 0 0 0 .37.06l1.24-.13-.16 5.38a18 18 0 0 1-.61 4.5 6.73 6.73 0 0 1-1.62 3 3.56 3.56 0 0 1-2.61 1.06 2.24 2.24 0 0 1-1.28-.31 1.55 1.55 0 0 1-.61-.81 4.73 4.73 0 0 1-.19-1.25c.05-.65.08-1.16.08-1.52l1.38.14a3.1 3.1 0 0 0-.2.89 3.15 3.15 0 0 0 .28 1.14l-.82.05s0 .17.06.36a1 1 0 0 0 .34.54 1.55 1.55 0 0 0 .93.28 2.14 2.14 0 0 0 1.57-.64 4.43 4.43 0 0 0 1-1.69 10.23 10.23 0 0 0 .55-2.26 18 18 0 0 0 .16-2.42M500.94 55.24l.62.08a3.82 3.82 0 0 1-.25 1.11 3.16 3.16 0 0 1-3.19 2 2.64 2.64 0 0 1-2.64-1.77 5.16 5.16 0 0 1-.3-1.8 13 13 0 0 1 .26-2 6.58 6.58 0 0 1 .6-1.69 3.48 3.48 0 0 1 1.08-1.17 2.86 2.86 0 0 1 1.62-.51 2.56 2.56 0 0 1 1.34.31 1.69 1.69 0 0 1 .72.82 3 3 0 0 1 .22 1.17 6.72 6.72 0 0 1-.24 1.52 22 22 0 0 1-4.14.82s0 .21-.08.63c.08 1.86.77 2.81 2.09 2.86a2.21 2.21 0 0 0 1.14-.31 2.4 2.4 0 0 0 .83-.83 2.08 2.08 0 0 0 .31-1.08zm-4.22-1.7l1.76-.23a1.46 1.46 0 0 0 1-.58 1.78 1.78 0 0 0 .35-1.08 3.18 3.18 0 0 0-.2-1.18.83.83 0 0 0-.87-.48 1.69 1.69 0 0 0-1.51 1.25 7 7 0 0 0-.55 2.22v.06zM417.56 43.43s-1 .21-1.61 2.47-.95 11.8-.95 11.8l1.84-.3v.71a14.43 14.43 0 0 0-3.48.6s.55-12.78 2.17-15.78h2zM473.08 43.43s-1 .21-1.61 2.47-.93 11.8-.93 11.8l1.84-.3v.71a14.43 14.43 0 0 0-3.48.6s.55-12.78 2.17-15.78h2zM477.84 43.43s-1 .21-1.61 2.47-.93 11.8-.93 11.8l1.84-.3v.71a14.43 14.43 0 0 0-3.48.6s.55-12.78 2.17-15.78h2zM382.14 26.51s-6-3.69-8.76.52c-4 6.16 4.53 16.17-.31 23.64-3.24 5-10.72 5.2-10.72 5.2a10.77 10.77 0 0 0 1.64-13c-4.15-7.6-7.79-13.7-3.65-20.1 6.27-9.69 19.66-3.63 21.8 3.74z"/><path class="cls-2" d="M376.34 14a15.22 15.22 0 0 1 6.31 8.35 14.42 14.42 0 1 0-21.71 18q-.61-.32-1.2-.7c-7.09-4.59-9.89-14.55-5.31-21.64s13.65-9.34 21.91-4.01z"/><path class="cls-2" d="M350.67 12.53c4.3-6.64 13.93-8 19.93-3.6a12.49 12.49 0 0 1 1.87 1.68c-6.26-3.86-14.85-1.91-19.63 4.65a15.69 15.69 0 0 0-2.31 14.46c-3.36-4.72-3.44-11.66.14-17.19zM375.59 50.58a14 14 0 0 0 .35-9.32 12.67 12.67 0 0 1 1.83 11.95c-2.49 6.28-11.46 8.87-17.74 6.39a12.34 12.34 0 0 1-1.29-.6c6.37 1 14.38-2.18 16.85-8.42z"/><path class="cls-1" d="M0 0h172v66H0z"/><path class="cls-2" d="M137.1 23.93v3.64h-3.68v-3.64zM96.68 29.17a2.89 2.89 0 0 1 2.32 1l1.53 1.54a2.91 2.91 0 0 1 1 2.33v13.24H98l-.18-1-1.11.53a4.71 4.71 0 0 1-2.14.48h-2.7a2.89 2.89 0 0 1-2.32-1l-1.37-1.38a2.91 2.91 0 0 1-1-2.33v-1.86a2.9 2.9 0 0 1 1-2.33l1.56-1.56a2.9 2.9 0 0 1 2.32-1h5.59v-1.6a.64.64 0 0 0-.2-.46l-.92-.93a.68.68 0 0 0-.47-.19h-7.9v-2.41l1.09-1.07zm1 10.19h-5a.68.68 0 0 0-.47.19l-1 1A.64.64 0 0 0 91 41v1.41a.64.64 0 0 0 .2.46l.77.78a.68.68 0 0 0 .47.19h2.06a1 1 0 0 0 .42-.09l2.7-1.28zM114 29.17a2.88 2.88 0 0 1 2.32 1l1.48 1.5-2.57 2.59-1.37-1.38a.68.68 0 0 0-.47-.19h-4.09a.68.68 0 0 0-.47.19l-.77.78a.64.64 0 0 0-.2.46v8.3a.64.64 0 0 0 .2.46l.77.78a.68.68 0 0 0 .47.19h4.09a.68.68 0 0 0 .47-.19l1.37-1.38 2.58 2.59-1.49 1.5a2.89 2.89 0 0 1-2.32 1h-5.31a2.89 2.89 0 0 1-2.32-1L105 44.94a2.91 2.91 0 0 1-1-2.33v-8.77a2.91 2.91 0 0 1 1-2.33l1.37-1.38a2.89 2.89 0 0 1 2.32-1zM126.11 25.09v4.07h3.76v3.48h-3.76v9.74a.64.64 0 0 0 .2.46l.77.78a.68.68 0 0 0 .47.19h2.32v2.42l-1.1 1.06h-1.83a2.92 2.92 0 0 1-2.32-1L123.24 45a2.91 2.91 0 0 1-1-2.33v-10h-2.64v-2.43l1.08-1.07h1.56v-4.08zM137.1 29.17v18.12h-3.68V29.17zM154.83 29.17l1.72.8-5.92 17.32h-5.37L139.34 30l1.72-.8h2l4.76 14.63h.18l4.76-14.63zM167.35 29.17a2.89 2.89 0 0 1 2.32 1l1.33 1.34a2.91 2.91 0 0 1 1 2.33v4.84l-1.08 1.09h-9.27v2.61a.64.64 0 0 0 .2.46l.77.78a.68.68 0 0 0 .47.19h3.65a.68.68 0 0 0 .47-.19l1.37-1.38 2.58 2.59-1.49 1.5a2.89 2.89 0 0 1-2.32 1h-4.87a2.89 2.89 0 0 1-2.32-1l-1.37-1.38a2.91 2.91 0 0 1-1-2.33v-8.78a2.91 2.91 0 0 1 1-2.33l1.37-1.38a2.89 2.89 0 0 1 2.32-1zm-.14 3.67a.68.68 0 0 0-.47-.19h-3.65a.68.68 0 0 0-.47.19l-.77.78a.64.64 0 0 0-.2.46v2.22h6.53v-2.22a.64.64 0 0 0-.2-.46zM45.78 23.93L47 25.14v22.15h-3.72V28.54h-.38l-5.46 18.75h-4.56l-5.44-18.75H27v18.75h-3.64V25.14l1.17-1.21h5.18l5.21 19.23h.5l5.18-19.23zM61.24 23.92a2.61 2.61 0 0 1 2.12.9l2.72 2.79-2.55 2.65-2.59-2.66a.61.61 0 0 0-.43-.18h-4.08a.61.61 0 0 0-.43.18l-2 2.09a.6.6 0 0 0-.18.43v11a.6.6 0 0 0 .18.43l2 2.09a.61.61 0 0 0 .43.18h4.08a.61.61 0 0 0 .43-.18l2.59-2.65 2.56 2.64-2.72 2.79a2.61 2.61 0 0 1-2.12.9H55.7a2.61 2.61 0 0 1-2.12-.9L51 43.73a2.73 2.73 0 0 1-.88-2.18v-11.9a2.73 2.73 0 0 1 .88-2.18l2.59-2.65a2.61 2.61 0 0 1 2.12-.9zM79.66 23.92a2.6 2.6 0 0 1 2.12.9L83 26.11a2.74 2.74 0 0 1 .88 2.17V33a2.74 2.74 0 0 1-.88 2.18l-1.25 1.29a2.1 2.1 0 0 1-.6.46h-.33l4 8.75-1.52 1.56h-1.73L77 37.34h-4.3v9.93H69V25.13l1.17-1.21zm-.31 3.68a.61.61 0 0 0-.43-.18h-6.2v6.45h6.21a.61.61 0 0 0 .43-.18l.71-.73a.6.6 0 0 0 .18-.43v-3.77a.6.6 0 0 0-.18-.43zM0 47.28l7-6.83 7 6.83V23.92H0v23.36z"/><path class="cls-1" d="M522 0h172v66H522z"/><path class="cls-2" d="M616.92 19.46a6.9 6.9 0 0 1-4 1.13c-4.56 0-6.49-4-6.49-9.2 0-2.89.84-8.36 6-8.36a4.84 4.84 0 0 1 5.16 4.88h-1.88c0-1.7-.79-3.75-3.33-3.75-3.8 0-4.29 4.66-4.29 7 0 4.42 1.41 8.27 5 8.27a5.58 5.58 0 0 0 3.82-1.6zM619.81 3.3h1.36v8.49c.3-.86 1.53-3.48 3.9-3.48s3 1.51 3 3.73v8.29h-1.36v-7.85c0-1.33-.15-2.94-1.85-2.94-2.44 0-3.7 4.07-3.7 5.3v5.48h-1.36zM639 20.33a10.1 10.1 0 0 1-2.47.27c-3.82 0-5.75-2.25-5.75-6.44 0-3.4 1.23-5.85 4.54-5.85 2 0 3.9 1.13 3.9 4.69h-6.92c0 5.67 3 6.59 4.59 6.59a6.59 6.59 0 0 0 2.12-.29zM637.73 12a2.47 2.47 0 0 0-2.59-2.76A2.68 2.68 0 0 0 632.4 12zM647.59 18.5a3.89 3.89 0 0 1-3.38 2.1 3 3 0 0 1-3.13-3c0-2.25 2-3.82 6.56-3.82V13c0-1.82 0-3.72-2.39-3.72-1.9 0-2.15 1.21-2.2 2.17h-1.7c.17-1.28.81-3.13 4-3.13s3.6 2.07 3.6 4v8h-1.36zm0-3.75c-1.13 0-5.06 0-5.06 2.69a1.91 1.91 0 0 0 2 1.92c2.25 0 3-2.29 3-3.95zM659.05 17.93a3.61 3.61 0 0 1-3.4 2.66c-3.16 0-3.9-3.16-3.9-6.07 0-3.48 1.26-6.22 4.12-6.22a3.33 3.33 0 0 1 3.13 2.63V3.3h1.36v17H659zm-3.38 1.7c2 0 3.38-2.42 3.38-5.3 0-1.43-1-5.06-3.16-5.06-2 0-2.69 2.57-2.69 5.35.01 2.33.52 5.01 2.47 5.01zM663.83 3.3h1.36v17h-1.36zM676.15 20.33a10.1 10.1 0 0 1-2.47.27c-3.82 0-5.75-2.25-5.75-6.44 0-3.4 1.23-5.85 4.54-5.85 2 0 3.9 1.13 3.9 4.69h-6.93c0 5.67 3 6.59 4.59 6.59a6.59 6.59 0 0 0 2.12-.29zM674.87 12a2.47 2.47 0 0 0-2.59-2.76 2.68 2.68 0 0 0-2.74 2.76zM606.41 25.09h1.53v7.65h7.23v-7.65h1.53v17h-1.53v-8.22h-7.23v8.24h-1.53zM627.18 39.2c-.25.79-1.13 3.18-3.43 3.18-3 0-3.45-2.29-3.45-3.82v-8.19h1.36v7.87c0 1.8.74 2.91 2 2.91 2.54 0 3.6-3.18 3.6-5.48v-5.3h1.36v11.74h-1.36zM632 25.09h1.36v17H632zM636.73 30.37h1.36v2.93c.52-1.41 1.83-3.21 3.68-3.21s2.71 1.38 2.71 3.18c.27-.76 1.48-3.18 3.65-3.18s2.87 1.73 2.87 3.16v8.86h-1.36v-7.92c0-1.11 0-2.86-1.73-2.86-2.2 0-3.36 3.45-3.36 5.38v5.4h-1.36v-8c0-.86 0-2.74-1.68-2.74-2.15 0-3.4 3.45-3.4 5.38v5.4h-1.36zM661.93 42.11a10.11 10.11 0 0 1-2.47.27c-3.82 0-5.75-2.25-5.75-6.44 0-3.4 1.23-5.85 4.54-5.85 2 0 3.9 1.13 3.9 4.69h-6.93c0 5.67 3 6.59 4.59 6.59a6.6 6.6 0 0 0 2.12-.29zm-1.28-8.29a2.47 2.47 0 0 0-2.59-2.76 2.68 2.68 0 0 0-2.74 2.76zM614.94 49a9.31 9.31 0 0 0-3.75-1c-2 0-3.28 1.16-3.28 2.76 0 2.52 2.12 2.79 5.21 4.64 1.65 1 2.81 1.9 2.81 4.29 0 3.43-2.79 4.74-5.65 4.74a18.31 18.31 0 0 1-3.78-.43v-1.71a9.57 9.57 0 0 0 3.87 1c2.1 0 3.87-1 3.87-3.38 0-2.15-1.75-2.89-3.45-3.77-2.29-1.23-4.39-2.15-4.39-5 0-2.54 1.92-4.22 5.16-4.22a14.71 14.71 0 0 1 3.38.39zM625.72 64.17a7.9 7.9 0 0 1-2.15.27c-4.74 0-5.63-3.43-5.63-6.42 0-4.1 1.8-5.87 4.47-5.87a3.5 3.5 0 0 1 3.75 3.75h-1.7c0-1 0-2.79-2.2-2.79s-2.81 2.44-2.81 4.64c0 3.31 1.63 5.67 4.49 5.67a5.52 5.52 0 0 0 1.78-.27zM628.48 47.14h1.36v8.49c.3-.86 1.53-3.48 3.9-3.48s3 1.51 3 3.73v8.29h-1.36v-7.85c0-1.33-.15-2.94-1.85-2.94-2.44 0-3.7 4.07-3.7 5.3v5.48h-1.36zM639.46 58.22c0-3.48 1.58-6.07 4.74-6.07s4.91 2.37 4.91 6.29c0 3.48-1.53 6-4.81 6s-4.84-2.59-4.84-6.22zm4.81 5.26c2.59 0 3.33-2.37 3.33-5 0-2.84-.77-5.4-3.4-5.4S641 55.73 641 58c0 3 .78 5.48 3.27 5.48zM651.17 58.22c0-3.48 1.58-6.07 4.74-6.07s4.91 2.37 4.91 6.29c0 3.48-1.53 6-4.81 6s-4.84-2.59-4.84-6.22zm4.83 5.26c2.59 0 3.33-2.37 3.33-5 0-2.84-.77-5.4-3.4-5.4s-3.23 2.61-3.23 4.88c-.02 3.04.79 5.52 3.3 5.52zM663.58 47.14h1.36v17h-1.36zM590.68 61.06a6.52 6.52 0 0 0 5-5.83 4 4 0 0 0-3.46-4.32c-3.17-.29-2.53 1.92-2.25 2.63a1.33 1.33 0 0 0-.43.5 1.36 1.36 0 0 0-.08 1 .71.71 0 0 0-.24.31 1.24 1.24 0 0 0-.08.3 2.71 2.71 0 0 0-2.14 1.13.77.77 0 0 0-.11.66 1 1 0 0 0 .56.54h.06a1.63 1.63 0 0 0 .59.44 1.21 1.21 0 0 0 .81.06 1.92 1.92 0 0 0 .33.15h.09a1 1 0 0 0 .38.08.93.93 0 0 0 .52-.16l.21.1a.79.79 0 0 0 .25 0 .59.59 0 0 0 .4-.15c.4-.36.24-1.25.18-1.52a1.51 1.51 0 0 0-.4-.73.83.83 0 0 0 .13-.25.8.8 0 0 0 0-.38 1.71 1.71 0 0 0 .64-.71 1.19 1.19 0 0 0 0-.85 1.13 1.13 0 0 0-.63-.67 1.18 1.18 0 0 0-.39-.09l-.16-.39c-.57-1.58 1.3-1.39 1.3-1.39a3.07 3.07 0 0 1 3.11 2.26 5.32 5.32 0 0 1-1.4 4.79c-3.92 4.37-7.83-.43-7.83-.43 1.07-2.07-.89-1.84-.89-1.84a10.83 10.83 0 0 1-.64-3.23 7.51 7.51 0 0 0 1.24-.59s1.15-.7.1-1.9 2-4 2-4a3.77 3.77 0 0 0 .21-3.81 4.86 4.86 0 0 0-1.63-1.31c.59-1.57.83-2.06.83-2.06a12.2 12.2 0 0 0 2.92 6.22c.85 1.07 1.14-.5 1.14-.5 1.12.55 2.68-.6 2.68-.6l-.25-.67a2.26 2.26 0 0 0 1.72-1.15c1.36-2.56-1.48-3.35-1.48-3.35-.84-.38-.92.4-.92.4-.38 0-.94-.51-.94-.51a2.46 2.46 0 0 0 1.27 3.34 2 2 0 0 1-1.56-.79c-1.45-1.63 1-8.51 3.58-15.64s-1.34-10.35-1.34-10.35a4 4 0 0 0 1.87-1.21 3.4 3.4 0 0 1-.88-.33 11.25 11.25 0 0 0 .46-1.31c.39-2-2.76-2.67-2.76-2.67 1.73 3-3.93 2.41-3.93 2.41a13.34 13.34 0 0 0-5 1.2l-.23.12a5.13 5.13 0 0 0 .6-2.68 1.59 1.59 0 0 1-.86-.37c-.55-.87.14-2.75.14-2.75-2.08.23-2.38 1.45-2.38 1.45-.64-.48-1.14.47-1.14.47-1.12.21-1 1.82-1 1.82a3.13 3.13 0 0 0-1.46-.93 5.09 5.09 0 0 0-.29 1.67s-2.56-.94-2.58 1.34.86 2.82.86 2.82v-.3c0-.66.62-.45.62-.45s1.1.49-.77 2a11.48 11.48 0 0 1-4.4 2.06l-.53.18h-4.52l-.54-.18a11.49 11.49 0 0 1-4.4-2.06c-1.87-1.54-.77-2-.77-2s.64-.21.62.45v.3s.87-.54.86-2.82-2.58-1.34-2.58-1.34a5.09 5.09 0 0 0-.3-1.67 3.14 3.14 0 0 0-1.46.93s.13-1.61-1-1.82c0 0-.5-1-1.14-.47 0 0-.31-1.21-2.38-1.45 0 0 .7 1.88.14 2.75a1.59 1.59 0 0 1-.86.37 5.13 5.13 0 0 0 .6 2.68l-.23-.12a13.32 13.32 0 0 0-5-1.2s-5.67.57-3.93-2.41c0 0-3.15.65-2.76 2.67a10.94 10.94 0 0 0 .46 1.31 3.41 3.41 0 0 1-.88.33 4 4 0 0 0 1.87 1.21s-3.93 3.21-1.34 10.35 5 14 3.58 15.64a2 2 0 0 1-1.56.79 2.46 2.46 0 0 0 1.25-3.34s-.55.54-.94.51c0 0-.08-.78-.93-.4 0 0-2.84.79-1.48 3.35a2.27 2.27 0 0 0 1.72 1.15l-.25.67s1.56 1.14 2.68.6c0 0 .29 1.57 1.14.5a12.19 12.19 0 0 0 2.92-6.22s.24.49.83 2.06a4.89 4.89 0 0 0-1.63 1.31 3.77 3.77 0 0 0 .21 3.81s3.09 2.85 2 4 .1 1.9.1 1.9a7.66 7.66 0 0 0 1.24.59 10.88 10.88 0 0 1-.64 3.23s-2-.23-.89 1.84c0 0-3.91 4.8-7.83.43a5.32 5.32 0 0 1-1.4-4.79 3.07 3.07 0 0 1 3.11-2.26s1.86-.19 1.29 1.39l-.13.38a1.16 1.16 0 0 0-.45.09 1.12 1.12 0 0 0-.63.67 1.18 1.18 0 0 0 0 .85 1.69 1.69 0 0 0 .64.71.83.83 0 0 0 0 .38.89.89 0 0 0 .13.26 1.51 1.51 0 0 0-.4.73c-.06.27-.21 1.16.19 1.52a.59.59 0 0 0 .4.15.83.83 0 0 0 .25 0l.21-.1a.93.93 0 0 0 .52.16 1 1 0 0 0 .38-.08h.09a1.89 1.89 0 0 0 .33-.15 1.2 1.2 0 0 0 .81-.06 1.62 1.62 0 0 0 .59-.44h.06a.94.94 0 0 0 .56-.54.78.78 0 0 0-.1-.66 2.72 2.72 0 0 0-2.14-1.13 1.25 1.25 0 0 0-.08-.3.72.72 0 0 0-.24-.31 1.36 1.36 0 0 0-.08-1 1.34 1.34 0 0 0-.36-.45c.27-.68 1-3-2.26-2.68a4 4 0 0 0-3.46 4.32 6.52 6.52 0 0 0 5 5.83c2.13.4 4.54-1.49 5.3-2.14 1.21 1.36 6.9 7.09 17.32 7.09h.07c10.86 0 16.59-5.71 17.81-7.08.82.64 3.23 2.52 5.35 2.13zm-1.18-5.61c.18-.44.77-.21.77-.21a.55.55 0 0 1 .39.7.58.58 0 0 1-.18.29 2.21 2.21 0 0 0-1-.44 1 1 0 0 1 .02-.35zm1.41 1.67s.32 1.47-.4 1.23a2.23 2.23 0 0 1-.24-.12 5.58 5.58 0 0 0 0-1.32.09.09 0 0 0-.11-.08.09.09 0 0 0-.08.11 5.38 5.38 0 0 1 0 1.28.78.78 0 0 1-1-.05 7.65 7.65 0 0 1 .61-1.46.09.09 0 0 0 0-.13.09.09 0 0 0-.13 0 7.56 7.56 0 0 0-.63 1.52 1 1 0 0 1-1.11-.37 2.86 2.86 0 0 1 .8-1 .1.1 0 0 0 0-.13.09.09 0 0 0-.13 0 3.09 3.09 0 0 0-.84 1.06c-.19-.07-.6-.29-.34-.73a2.29 2.29 0 0 1 2.41-.91s1 .21 1.19 1.09zm0-3.37a.85.85 0 0 1 .44 1.09 1.48 1.48 0 0 1-.61.61.9.9 0 0 0-.93-.4 1.06 1.06 0 0 1 0-.86.83.83 0 0 1 1.09-.45zm-42.61 3.18c.27.44-.14.65-.34.73a3.09 3.09 0 0 0-.84-1.06.09.09 0 0 0-.13 0 .1.1 0 0 0 0 .13 2.89 2.89 0 0 1 .8 1 1 1 0 0 1-1.11.37 7.72 7.72 0 0 0-.63-1.52.1.1 0 0 0-.13 0 .09.09 0 0 0 0 .13 7.56 7.56 0 0 1 .61 1.46.78.78 0 0 1-1 .05 5.59 5.59 0 0 1 0-1.28.09.09 0 0 0-.19 0 5.59 5.59 0 0 0 0 1.32 2.35 2.35 0 0 1-.25.12c-.73.24-.4-1.23-.4-1.23.2-.87 1.27-1.1 1.27-1.1a2.3 2.3 0 0 1 2.33.87zm-2.3-1.49a1 1 0 0 1 .07.34 2.2 2.2 0 0 0-1 .44.59.59 0 0 1-.19-.29.55.55 0 0 1 .39-.7s.57-.23.73.21zm-.31-1.26a1.07 1.07 0 0 1 0 .86.9.9 0 0 0-.93.4 1.48 1.48 0 0 1-.61-.61.85.85 0 0 1 .44-1.09.84.84 0 0 1 1.12.45zm44.43-10.34c-1.63-1.79-1.84-3.56-1.14-6.19 0 0 1.65-4.36 2.09-5.81 0 0-2.35 3.53-4.22 7a75.64 75.64 0 0 0-3.14 8.56l-.62.16.52-.63-.33-.49.44-.35-.3-.45.44-.23-.31-.44.48-.18-.35-.48.5-.26-.33-.56.52-.3-.27-.76.55-.34-.26-.69.58-.36-.2-.72.59-.25-.16-.7.59-.18.09-.36.35-.23.06-.51.4-.17.12-.28.3-.29s2.7-4 3.56-5.52a7.71 7.71 0 0 0 1-1.9 7.29 7.29 0 0 0-.75.87h-.51s2.59-3.8 2.74-4.72l-.2-.3s2.13-3.89 1.67-6.7c0 0 1.16 3.33-1.28 8.39-2 4.23-1.81 4.74-3.54 9s-.2 8.8 3.37 7.44l.13.46a2.24 2.24 0 0 1-3.17-.53zm-7.58-.1c-.14.33-.22.11-.22.11a3.64 3.64 0 0 1 0-1.55c-.1-.17-.37-.33-.84.28a1.52 1.52 0 0 0 .89 2.16c.91.15.28 2.41.28 2.41a3.09 3.09 0 0 1-1.06.77 9.79 9.79 0 0 0 .3-2.19 1.29 1.29 0 0 0 .64-.57 1.84 1.84 0 0 1-1.07-.58c-1.3-2.23.28-2.8.28-2.8a8.16 8.16 0 0 1 2.33-.24l-.16.57a3.21 3.21 0 0 0-1.29.25c-.25.3-.06 1.38-.06 1.38zm-8.73 11.91L575.3 57a17.63 17.63 0 0 1-7.77 1.88 16.79 16.79 0 0 1-7.39-1.77l1.59-1.46a3.24 3.24 0 0 0 1-3 28 28 0 0 0 4.88 4l.18.11.17-.11a28.22 28.22 0 0 0 4.88-4 3.24 3.24 0 0 0 .99 3zm-6.06.22a27.09 27.09 0 0 1-5-4.1 36 36 0 0 1-3-3.52 37.52 37.52 0 0 1-3-4.68 41.72 41.72 0 0 1-3.8-10.45h.17l21.15 16.78a29 29 0 0 1-6.5 5.97zm-14.03-10.14a9.82 9.82 0 0 0 .3 2.19 3.11 3.11 0 0 1-1.06-.77s-.63-2.26.28-2.41a1.52 1.52 0 0 0 .89-2.16c-.47-.61-.74-.44-.84-.28a3.66 3.66 0 0 1 0 1.55s-.09.22-.22-.11c0 0 .19-1.08 0-1.38a3.26 3.26 0 0 0-1.29-.25c-.05-.19-.1-.38-.16-.57a8.27 8.27 0 0 1 2.33.24s1.58.57.27 2.8a1.84 1.84 0 0 1-1.07.58 1.3 1.3 0 0 0 .57.57zm-11-29.38l.84-.75a8.43 8.43 0 0 0-.72 7.25l.32.35a8.32 8.32 0 0 1 .69-7.81 6.92 6.92 0 0 1 .72-.41 12.12 12.12 0 0 0-1.23 3.25.08.08 0 0 0 .06.1.08.08 0 0 0 .08-.07 11.41 11.41 0 0 1 1.33-3.39c.64-.3 1.22-.5 1.22-.5-5.31 5.48 1.4 11.78 1.4 11.78-1.11-.73-1.42.13-1.42.13a6.93 6.93 0 0 1-2.9-2.73c-.58-.39-.2 1.08-.2 1.08.59 1.94 3.12 3.12 3.12 3.12l.14.62.61-.15.1.64.56-.14.14.64.66-.06.05.59h.65v.6l.78.07.06.63h.73l.1.75h.63l.06.67.72.12v.08a4.69 4.69 0 0 0 .42 1.74v.1a79.86 79.86 0 0 1-7.42-6.65 53.39 53.39 0 0 0 7.19 7 1.43 1.43 0 0 0-.2 1l-6.44-6.41a17.52 17.52 0 0 1-4.18-7.59 5.37 5.37 0 0 1 .92-5.25 6.84 6.84 0 0 0-.41 5.14l.49.67a6.47 6.47 0 0 1 .34-6.2zm6.9 10A7.41 7.41 0 0 0 551.3 28c.18 1.42.41 2.77.68 4.07a38 38 0 0 0-5.89-4.67l-.53-.28 1 .11c-.5-.48-.22-.84-.22-.84.46-.57 1 .07 1 .07a5.68 5.68 0 0 0 2.3 1.49 3.42 3.42 0 0 1-.01-1.55zm-.22-6.59s-3.78-2.79-.94-4.28c2.1-1.1 4.64 1.43 5.82 2.82a2 2 0 0 1-1 1.94h-2.16a3.17 3.17 0 0 0-.56-1.49s.06 2.03-1.16 1.07zm10.78 3.66l.73.42h-.63a.94.94 0 0 0-.88 0h-7.64v-.44h8.44zm1.82 5.84a1.34 1.34 0 0 0 1.37 1.35h.17a2.5 2.5 0 0 0 .46-.11 5.79 5.79 0 0 0 .74.16h.11l1.65.07a7.35 7.35 0 0 0 1-.13l-4.08-.17a1.44 1.44 0 0 1-.88-.36 1 1 0 0 1-.14-.17 2.25 2.25 0 0 1-.05-1.67c.12-.31.24-.72.34-1a10.45 10.45 0 0 0 3.25 1.38l-.09-.08a17.41 17.41 0 0 1-3.16-1.3c.09-.32.16-.57.17-.59v-.21a5.92 5.92 0 0 0 2.47 1.17 1.35 1.35 0 0 0 .12.39 1.3 1.3 0 0 0 .15.24 1.4 1.4 0 0 0 .68.46 10.88 10.88 0 0 0 3.65.67 7.67 7.67 0 0 0 1.4-.13h.1l.46-.11a1.25 1.25 0 0 0 .37-.47 5.17 5.17 0 0 0 2.35-.21.61.61 0 0 0 .07.63s.5.55.38 1a1.07 1.07 0 0 1-1 .86l-2.22-.09a9.08 9.08 0 0 0 2.34.1l.57-.14a1.31 1.31 0 0 0 .41-.69 1.52 1.52 0 0 0-.41-1.16.32.32 0 0 1-.08-.21h8.72c0 .22-.07.44-.1.66a7.78 7.78 0 0 1-1.09-.16 3.53 3.53 0 0 0-2.44.07 2.77 2.77 0 0 1-1.64.1 2.44 2.44 0 0 0 1.68.08 3 3 0 0 1 2.1-.08 3.52 3.52 0 0 0 1.38.08c0 .18-.05.36-.08.54-.31.05-.65.13-1 .21a4.08 4.08 0 0 1-2.37-.21 2.53 2.53 0 0 0-1.6 0 9.83 9.83 0 0 1-2.44.17c1.88.57 2.59-.21 4.6.14a9 9 0 0 0 2.77 0v.19a4.42 4.42 0 0 0-1.31.28 4.37 4.37 0 0 1-2-.06 3.15 3.15 0 0 0 1.94.25 5.19 5.19 0 0 1 1.34-.17l-.21 1.11a3.89 3.89 0 0 1-1.29-.47c-.34-.2-.3-.19-.92 0a12.91 12.91 0 0 1-2.37.32 5.21 5.21 0 0 0 2.14 0c.77-.29.69-.36 1.24-.11a3.12 3.12 0 0 0 1.19.34l-.1.48h-29.95c-.1-.46-.2-.94-.29-1.42a2.07 2.07 0 0 0 .82-.16c.3-.1.35 0 .82.14a5.21 5.21 0 0 0 1.19.1 4 4 0 0 1-1.53-.46c-.34-.16-.45 0-1 .17a1.82 1.82 0 0 1-.32.07c0-.24-.09-.48-.13-.72a8.4 8.4 0 0 0 2-.05 2.62 2.62 0 0 1 1.74 0 4.8 4.8 0 0 0 2.52 0 2.88 2.88 0 0 1 2.11 0c.51.15.9.35 1.34.46s.65 0 1 0a3.13 3.13 0 0 1-1.78-.5c-.82-.64-1.64-.33-2.83 0a4 4 0 0 1-2.58-.25c-.19-.09-.44-.31-1.39 0a6.66 6.66 0 0 1-2.1.23c0-.24-.08-.49-.11-.74a3.82 3.82 0 0 0 .75 0 2.68 2.68 0 0 1 1 .1 2.34 2.34 0 0 0 1.11-.1 3.09 3.09 0 0 1-1.55-.1 4.52 4.52 0 0 0-1.27 0c0-.24-.07-.47-.11-.71H562a2.71 2.71 0 0 0 0 .57zm3.07-3.32a.79.79 0 0 1 .26.15.4.4 0 0 1 .08.5 1.48 1.48 0 0 0-.06.2 22.77 22.77 0 0 1-2.47-1.06 17 17 0 0 0 2.45 1.15 2.05 2.05 0 0 0 0 .62 9.23 9.23 0 0 1-2.46-1.11 2.46 2.46 0 0 0 0-.45 2.33 2.33 0 0 0 0-.27 2.09 2.09 0 0 0-.06-.25 2.22 2.22 0 0 0-.44-.75 22.29 22.29 0 0 0 2.71 1.27zm-.19-.27zm9.48 2.09a2.47 2.47 0 0 0 .45-.11.71.71 0 0 1 .19-.05 2.7 2.7 0 0 0-.42.74 7.31 7.31 0 0 1-2.33.13.85.85 0 0 0-.08-.71h1.05a7.18 7.18 0 0 0 1.12-.07zm-.44-5.51a.4.4 0 0 0-.16 0 .59.59 0 0 0-.19 0h-.66a.29.29 0 0 1 .16 0 .38.38 0 0 0 .2-.38h10.63v.44zm1.18.11h-.2l-.07-.05zm-.76 0a.31.31 0 0 1-.13 0 .26.26 0 0 1-.11 0zm-1 0l-.08.05a1.29 1.29 0 0 1-.32.06h-.11c-.01 0 0 0 0-.09zm.12.32l.07-.05a.67.67 0 0 1 .28-.14c.13.14.45.26.61.13.11-.09.14-.1.26 0a.43.43 0 0 0 .23.08.22.22 0 0 0 .15 0 .15.15 0 0 1 .12-.07.21.21 0 0 1 .09 0h.08a.08.08 0 0 0 0-.09.28.28 0 0 0-.15-.1h8.62v.44h-10.61a1.59 1.59 0 0 0 .26-.2zM584.08 29v-.07c0-.3.08-.59.12-.9a7.35 7.35 0 0 0 1.73-1.6 3.43 3.43 0 0 1 0 1.53 5.67 5.67 0 0 0 2.3-1.49s.52-.64 1-.07c0 0 .28.36-.22.84l1-.11-.54.28a37.89 37.89 0 0 0-5.94 4.72c.08-.39.16-.79.23-1.2h.06-.05c.11-.67.23-1.29.31-1.93zm.35-8.67h-2.15a2 2 0 0 1-1-1.94c1.18-1.4 3.72-3.93 5.82-2.83 2.84 1.48-.94 4.28-.94 4.28-1.22 1-1.17-1-1.17-1a3.16 3.16 0 0 0-.56 1.49zm7.79-2.09A12 12 0 0 0 591 15a7.23 7.23 0 0 1 .72.41 8.31 8.31 0 0 1 .69 7.81l.32-.35a8.43 8.43 0 0 0-.73-7.27l.84.75a6.47 6.47 0 0 1 .34 6.18l.49-.67a6.84 6.84 0 0 0-.41-5.14 5.37 5.37 0 0 1 .92 5.25 17.52 17.52 0 0 1-4.34 7.53l-6.44 6.41a1.44 1.44 0 0 0-.2-1 53.3 53.3 0 0 0 7.19-7 81.1 81.1 0 0 1-7.39 6.68 4.86 4.86 0 0 0 .47-1.94l.74-.13.06-.67h.63l.11-.75h.73l.06-.63.77-.07.05-.6h.65l.05-.59.65.06.13-.64.56.14.1-.64.61.15.14-.62s2.53-1.18 3.12-3.12c0 0 .39-1.47-.2-1.08a6.94 6.94 0 0 1-2.9 2.73s-.31-.86-1.42-.13c0 0 6.72-6.3 1.4-11.78 0 0 .58.2 1.22.5a11.46 11.46 0 0 1 1.33 3.39.08.08 0 0 0 .08.07.08.08 0 0 0 .08 0zm-7.39 20.61a25.1 25.1 0 0 0 2.71-4 10.69 10.69 0 0 0-2.71 3.45 6.79 6.79 0 0 1-3.26 2.95l-.12-1.14 1-.88.29-.09v-.26h.32v-.32h.33v-.3h.35v-.34h.39v-.34h.4v-.37h.39v-.4h.41v-.46l.39.07v-.4h.44v-.44h.44v-.44h.48v-.46h.51V34l.53-.09.07-.53.54-.13v-.47l.51-.14.08-.48.52-.21.55-.87h.47s-2.65 4-5.51 7.79c-.09-.02-.08-.2-.52-.02zm.09.5a6.45 6.45 0 0 0-.7 1.55 7.93 7.93 0 0 0-1.09-.08 9.44 9.44 0 0 0 1.79-1.47zm-8.82-6.23h6.34c-.32 1.44-.69 2.79-1.11 4.06zm4.3 6.65c-.44 1.11-.91 2.15-1.4 3.12l-12.3-9.77h5.3zm2.19-3.08a2.32 2.32 0 0 0-.45.59c.25-.75.48-1.52.7-2.32a1.18 1.18 0 0 1-.24 1.73zm7.41-5.75c-1.56 1.64-7.62 7.62-7.62 7.62a1.59 1.59 0 0 1 .46-1.64c2.07-2.43 7.16-5.98 7.16-5.98zm-8 6.84a1.74 1.74 0 0 0 .22 1.18c-.26.2-.82.74-1 .93q.39-1.01.78-2.11zm5.56-5.46a38.14 38.14 0 0 0 5.18-6 21.13 21.13 0 0 1-2.26 3.84c-1.01.67-2.93 2.16-2.93 2.16zm2.09-5.84c1.38-.37 2.88-2.58 2.88-2.58 0 1.5-2.33 3.16-2.28 3 .14-.33-.62-.43-.62-.43zm-6.41-1.73a1.58 1.58 0 0 0-.87.26 2 2 0 0 0-.83-.43h2.33v.34a1 1 0 0 0-.65-.18zm.64-.28h-7A1.83 1.83 0 0 0 576 24h7.91c-.03.16-.04.31-.05.46zm-5.17 1.1a1.81 1.81 0 0 0-.92-.44h1.82a2 2 0 0 0-.33.44zm.52.11a1.93 1.93 0 0 0-.13.36 1.9 1.9 0 0 0-.27-.36zm-1.95-.68a1.83 1.83 0 0 0-.31-.44h3.57a2 2 0 0 0-.84.44zM553 36.69a1.18 1.18 0 0 1-.28-1.69q.31 1.12.66 2.17a2.41 2.41 0 0 0-.38-.48zm.24 1.86s-6.06-6-7.62-7.62c0 0 5.07 3.55 7.16 6a1.59 1.59 0 0 1 .43 1.62zm-1.3-12.44v-.44h.81a1.68 1.68 0 0 0-.66.44zm0 .11zm6.24-1.66a1.75 1.75 0 0 0-.78.44h-5.56v-.44zm-6.38-.11v-.44h7.47a1 1 0 0 0-.3.44zm5.5.66a1.72 1.72 0 0 0-.28.44h-5.15v-.44zm-1.71 2.09a1.38 1.38 0 0 0-.37-.05h-.25a1.66 1.66 0 0 0-.07-.41h1.89a2.12 2.12 0 0 0-.48.44zm.64.11l-.1.16a1.42 1.42 0 0 0-.25-.16zm-1.37-.66a1.65 1.65 0 0 0-.25-.44h2.26a1.77 1.77 0 0 0 .05.41zm2-.55h-2.36a1.68 1.68 0 0 0-.65-.44H557a1.74 1.74 0 0 0-.13.45zm3.91-1.55h.83a2.06 2.06 0 0 0-.27.26.69.69 0 0 0-.4-.13h-.13a1 1 0 0 0-.02-.11zm1-.11h-1a1 1 0 0 0-.3-.44h.66l.61.34.1.07zm-16.44 2.47c.05.13-2.25-1.53-2.28-3 0 0 1.5 2.21 2.88 2.58.01-.02-.74.08-.6.44zm2.67 5.41s-1.92-1.49-2.92-2.15a21.07 21.07 0 0 1-2.26-3.84 38.13 38.13 0 0 0 5.18 5.99zm-2.2-.37l.52.21.07.48.51.14v.47l.54.13.07.53.53.09v.5h.51v.5h.48v.44h.44v.44h.44v.4l.39-.07v.46h.41v.4h.39v.37h.39v.34h.39v.34h.35v.3h.33v.32h.32V39l.3.09 1 .88-.18 1.25a6.79 6.79 0 0 1-3.26-2.95 10.67 10.67 0 0 0-2.74-3.44 25.11 25.11 0 0 0 2.71 4c-.44-.18-.43 0-.43 0-2.86-3.76-5.51-7.79-5.51-7.79h.47zm7.78 6q.35 1 .74 1.95c-.22-.22-.73-.71-1-.9a1.74 1.74 0 0 0 .28-1.09zm-1.17 2.91a8 8 0 0 0-1.09.08 6.46 6.46 0 0 0-.69-1.55 9.29 9.29 0 0 0 1.8 1.43zm2.3 4a2.71 2.71 0 0 0-.43-3.51l.13-1.23a39.56 39.56 0 0 0 4.77 8.51q.53.72 1.07 1.37a14.17 14.17 0 0 0-5.15-1.86s-1.26-2.14-.36-3.31zm2.61-11.72h5.28l15.14 12a38.5 38.5 0 0 1-1.64 2.53zm19 15.53a39.32 39.32 0 0 0 4.8-8.59l.13 1.27a2.71 2.71 0 0 0-.42 3.51c.89 1.2-.39 3.28-.39 3.28A14.14 14.14 0 0 0 575.3 50c.34-.45.7-.89 1.03-1.35zm14.6-7.19s.74 1.32 1.77 1.43.74-.21 1.47 0c0 0 .29-.81-.88-1.33s-1.28-.96-1.28-1.8a4.52 4.52 0 0 0 1.53.66 1.12 1.12 0 0 0-.07-.69 1.85 1.85 0 0 1 1.78 1.84s-.54-.86-.81-.9c0 0 .87 1.15.33 2.09 0 0-1.32 1.92-3.69-.33 0 0-1.91-1.73.8-7.83-.03-.01-1.64 4.63-.94 6.84zM595.37 24s-1.54 4.67-2.46 6.67l-1.63 4.52-.59.3.28.62-.47.34.23.64-.53.45.18.68-.5.28.25.61-.48.43.37.64-.39.46.43.48-.16.68.46.32-.05.62.68.11.23.66a3 3 0 0 1 1.64.26s-1.31 1-2.87-1.07c0 0-1.33-1.45-.23-5 0 0 2.44-6.64 3.32-8.79 1.29-3.16 4-9.14-.34-13.11a9.62 9.62 0 0 0-4.45-2 9.22 9.22 0 0 1 4.71 1.85s3.68 2.62 2.37 8.35zm-.54-11.26a3.07 3.07 0 0 1-.52 1.69 1.62 1.62 0 0 0 .69.35 3.83 3.83 0 0 1-1.54.81 4 4 0 0 0-.94-.62 3.74 3.74 0 0 0 2.31-2.26zm-.25-.8s.51 1.63-2.31 2.88a4.64 4.64 0 0 0-.57-.34s2.46-1.33 2-3.29c-.03-.03.75.3.88.71zM593 10.77a1.16 1.16 0 0 1 .47 1.38 4.07 4.07 0 0 1-2 2.12s-.75-.24-1.15-.43c.02 0 2.99-.63 2.68-3.07zm-6.49 2.47a13.21 13.21 0 0 1 3.17-.19 6.1 6.1 0 0 0 2.35-.38 3.12 3.12 0 0 1-2.91.83 2 2 0 0 0-1.51.26 2.43 2.43 0 0 0 1 .27l-.58.19a6.47 6.47 0 0 1 2.48 2.54 4.62 4.62 0 0 0-1.83-2.39l.43-.17s6.68 5-2.68 13.23v-.6a13.15 13.15 0 0 0 2.17-2 .09.09 0 0 0 0-.12.08.08 0 0 0-.12 0 12.8 12.8 0 0 1-2.05 1.93 2.7 2.7 0 0 0-.16-.78s5-5.89 3.95-8c0 0-.14-.18-.21 0a1.83 1.83 0 0 0 0 .64l-.39.35a1.67 1.67 0 0 1 .26.91l-.57.14.2.84-.73.32.14.61-.68.1.12.77-.64.18.11.57-.55.13v.62l-.54.09v.69l-.59.24v.67l-.6.09v.65a7.63 7.63 0 0 1-.85.83 4.41 4.41 0 0 1 .77-2.74c.92-1.26 3.53-4.66 3.86-5.88a2.69 2.69 0 0 0 .18-1.07 19.44 19.44 0 0 1-1.61 3.08s-1.57 2.25-2.35 3.22a9.81 9.81 0 0 1-.69.84 3.6 3.6 0 0 1 .38-1.78s.44-.48.52-.61l-1 .22v-.57s2 0 2.54-1a9.66 9.66 0 0 1-2.55.63 3.39 3.39 0 0 1 0-.59s4.33.38 4.45-4.48c0 0-.76 4.68-4.46 4.1a3 3 0 0 1 .19-.82s.5 1.49 2.7-.65c0 0 2.22-2.39.12-4.3a6.88 6.88 0 0 0-2.79-1.22 13.88 13.88 0 0 1 3.09-.28 4.06 4.06 0 0 0-1.56-.17zm-10.91 2.2s1.42-.39.89 2h.19s.75-2.48-1.15-2.44c0 0 1.44-1.22 1.6.8a6.17 6.17 0 0 1 0 1.14s.37-.31.29-1.45a1.49 1.49 0 0 0-.06-1.72c-.68-.76-2.51.18-1.93 1.91 0 0-.43.09-.48.29s-1.65-4.59 2.23-2.92a5 5 0 0 1 .17-1.71 2.29 2.29 0 0 1 1.53 2h.24s-.66-2.48.44-3a13.32 13.32 0 0 0-.17 2.84l.22-.31s0-2.62.39-2.89a.88.88 0 0 1 .4-.28 9 9 0 0 0-.21 2.4l.21-.26s.41-2.46 1.24-2.93a13.25 13.25 0 0 0-.41 2.88l.18.26s.2-2.89.72-3.41l.56-.18a16 16 0 0 1-1 3.82 2.86 2.86 0 0 0 .92-1.69 1.62 1.62 0 0 0 1 .87s-.65.73-1.52 1.65a4.78 4.78 0 0 0 1.46-1 4.7 4.7 0 0 1-.39 1.33s-.81 0-1 .68a.55.55 0 0 0 .3.31s-1.39.77-1.36 1.37a12.51 12.51 0 0 1 3.16-1.25 34.46 34.46 0 0 1-3.41 1.95 8.12 8.12 0 0 0 1.56-.51 14.13 14.13 0 0 1-2.88 2.01 1.55 1.55 0 0 1 1.47 1.11s.19.86.48 1h-1a1.57 1.57 0 0 0-2.32-1.65s.95.86.87 1.64h-.18s-.1-1.71-1.59-1.25a2 2 0 0 1 .95 1.25 1.47 1.47 0 0 0-1.92-.52c-1.36.52-1.61.69-2.35.52a10.2 10.2 0 0 0 7.3-7.39s-2.77 6.79-9.44 7.42c-.03 0 6.86-2.64 3.8-4.69zm2.07 4.73a12.52 12.52 0 0 1-1.27-.06c.42-.11.95-.43 1.27.06zm6.29 1v.49h-10.67a.47.47 0 0 0-.29-.18 1.45 1.45 0 0 0-.4-.05 1.79 1.79 0 0 0-.87.23h-.25a.22.22 0 0 0-.09-.21.4.4 0 0 0-.24-.06 2.7 2.7 0 0 0-.8.2 1.51 1.51 0 0 1-.26.1h-.52v.12l-.08.58h.05a.56.56 0 0 0 .16.09 1.08 1.08 0 0 0 .75-.09h.43a.25.25 0 0 0 0 .13.2.2 0 0 0 .19.13h.1a1.22 1.22 0 0 0 .67-.27h.47a.32.32 0 0 0 0 .07.58.58 0 0 0 .29.37h-2.94l.42.11h13.87v.44h-11.33a1.75 1.75 0 0 0-.26.11h11.55v.44h-12.16l-.1.11h3.65a1.81 1.81 0 0 0-.89.44h-2.92l.1.11h2.71a1.91 1.91 0 0 0-.3.44h-.05a1.48 1.48 0 0 0-.94-.34 1.47 1.47 0 0 0-.94.34H572l2.38 2.6h-.11L571.83 25h-.22l-.33-.37.47.54-.05-.06h.24l-.12.14 2.06 2.36h-.06l-2.54-2.91.22.25a1.26 1.26 0 0 0-.23-.13v-.13.13l2.12 2.8h-.14l-2-2.65a4.78 4.78 0 0 0 .82 3.14l-.66-.23.25.76h.54v.1l-.44.23-1.16.16h-1.3l-1.54-.13-1.14-.32h.45l.1-.23-.34-.14-.16.31h-.07l1-2-.84-.29-1.05 1.76-.06-.08 1-1.71-1.05-.3a1.49 1.49 0 0 1-.43-.44h-.33a2.06 2.06 0 0 0-.21-.44h.37l-.06-.19V25h-.34a2.12 2.12 0 0 0-.42-.44h.66v-.15H564a2 2 0 0 0-.48-.23c-.53.12-1 .2-1.22.25l-.27-.15c.05 0 .42-.07 1-.18h-.14a2 2 0 0 0-.86.19l-.55-.3h2.1l.47-.11h-2.76l-.87-.5a.1.1 0 0 1 .08 0l.2.06h2.9l.6-.11h-3.88l-.16-.09v.09h-8.44v-.44H565l.07-.11h-13.4v-.44h13.79l.14-.11h-13.89v-.44h17.09l.24-.11H551.7v-.49zm-11.53.83a.53.53 0 0 0-.11.22H572a2.38 2.38 0 0 1 .43-.22zm-.87-.22l-.07.05v-.07zm-.58.29a1 1 0 0 0-.08.15h-.21a1.36 1.36 0 0 1 .31-.12zm.78 3.25zm-14.31-5.17c.28-.51.84-.12 1.25-.07a12.44 12.44 0 0 1-1.26.09zm-3-4.26c0-.6-1.36-1.37-1.36-1.37a.54.54 0 0 0 .3-.31c-.15-.63-1-.68-1-.68a4.71 4.71 0 0 1-.4-1.33 4.79 4.79 0 0 0 1.46 1c-.87-.92-1.52-1.65-1.52-1.65a1.61 1.61 0 0 0 1-.87 2.86 2.86 0 0 0 .92 1.69 16 16 0 0 1-1.05-3.82l.56.18c.52.52.72 3.41.72 3.41l.18-.26a13.29 13.29 0 0 0-.4-2.88c.83.47 1.24 2.93 1.24 2.93l.21.26a9.14 9.14 0 0 0-.21-2.4.87.87 0 0 1 .4.28c.34.27.39 2.89.39 2.89l.22.31a13.37 13.37 0 0 0-.17-2.84c1.1.5.44 3 .44 3h.24a2.28 2.28 0 0 1 1.53-2 5 5 0 0 1 .17 1.71c3.88-1.67 2.28 3.11 2.23 2.92s-.48-.29-.48-.29c.58-1.73-1.25-2.66-1.93-1.91a1.5 1.5 0 0 0-.06 1.72c-.08 1.13.29 1.45.29 1.45a6.05 6.05 0 0 1 0-1.14c.16-2 1.6-.8 1.6-.8-1.9 0-1.15 2.44-1.15 2.44h.19c-.53-2.4.89-2 .89-2-3.06 2.05 3.83 4.69 3.83 4.69-6.67-.64-9.44-7.42-9.44-7.42a10.2 10.2 0 0 0 7.3 7.39c-.74.17-1 0-2.35-.52a1.47 1.47 0 0 0-1.92.52 2 2 0 0 1 .94-1.25c-1.49-.45-1.59 1.25-1.59 1.25h-.18c-.08-.78.87-1.64.87-1.64a1.57 1.57 0 0 0-2.32 1.65h-1.05c.29-.13.48-1 .48-1A1.55 1.55 0 0 1 556 18a14.14 14.14 0 0 1-2.85-1.93 8.08 8.08 0 0 0 1.56.51 34.58 34.58 0 0 1-3.41-1.95 12.5 12.5 0 0 1 3.19 1.28zM545.91 13a13.23 13.23 0 0 1 3.17.19 4.06 4.06 0 0 0-1.48.16 13.87 13.87 0 0 1 3.09.28 6.89 6.89 0 0 0-2.79 1.22c-2.11 1.91.12 4.3.12 4.3 2.19 2.14 2.7.65 2.7.65a2.37 2.37 0 0 1 .16.57v.25c-3.67.54-4.43-4.11-4.43-4.11.12 4.7 4.15 4.5 4.43 4.48v.6a10 10 0 0 1-2.53-.63c.49.91 2.42 1 2.53 1s0 .13 0 .2v.37l-1-.22c.08.13.51.61.51.61a3.6 3.6 0 0 1 .38 1.78 9.89 9.89 0 0 1-.69-.84c-.78-1-2.35-3.22-2.35-3.22a19.42 19.42 0 0 1-1.61-3.08 2.69 2.69 0 0 0 .18 1.07c.33 1.22 2.95 4.62 3.86 5.88a4.41 4.41 0 0 1 .78 2.74 7.69 7.69 0 0 1-.86-.83v-.65l-.6-.09v-.67l-.59-.24v-.69l-.54-.09v-.62l-.55-.13.11-.57-.64-.18.12-.77-.68-.1.14-.61-.73-.32.2-.84-.57-.14a1.66 1.66 0 0 1 .26-.91l-.39-.35a1.8 1.8 0 0 0 0-.64c-.08-.16-.21 0-.21 0-1 2.11 3.95 8 3.95 8a2.72 2.72 0 0 0-.16.78 12.9 12.9 0 0 1-2.06-1.93.08.08 0 0 0-.12 0 .09.09 0 0 0 0 .12 13 13 0 0 0 2.17 2v.6c-9.37-8.2-2.69-13.23-2.69-13.23l.43.17a4.61 4.61 0 0 0-1.83 2.39 6.46 6.46 0 0 1 2.48-2.54L547 14a2.44 2.44 0 0 0 1-.27 2 2 0 0 0-1.51-.26 3.12 3.12 0 0 1-2.91-.83 6.08 6.08 0 0 0 2.33.36zm-3.32-2.28c-.33 2.44 2.64 3.07 2.64 3.07-.39.18-1.15.43-1.15.43a4.06 4.06 0 0 1-2-2.12 1.16 1.16 0 0 1 .51-1.33zM541 11.9c.13-.42.91-.75.91-.75-.49 2 2 3.29 2 3.29a4.77 4.77 0 0 0-.57.34c-2.86-1.24-2.34-2.88-2.34-2.88zm-.42 2.84a1.61 1.61 0 0 0 .7-.35 3 3 0 0 1-.52-1.69 3.73 3.73 0 0 0 2.31 2.22 4 4 0 0 0-.94.62 3.86 3.86 0 0 1-1.56-.8zM540.2 24c-1.32-5.7 2.33-8.32 2.33-8.32a9.21 9.21 0 0 1 4.76-1.93 9.62 9.62 0 0 0-4.45 2c-4.36 4-1.63 9.95-.34 13.11.88 2.16 3.32 8.79 3.32 8.79 1.1 3.56-.23 5-.23 5-1.57 2.05-2.87 1.07-2.87 1.07a3 3 0 0 1 1.64-.26l.24-.66.68-.11-.05-.62.46-.32-.16-.68.43-.48-.39-.46.37-.64-.48-.43.25-.61-.5-.28.18-.68-.53-.45.23-.64-.47-.34.28-.62-.59-.3-1.63-4.52c-.94-1.98-2.48-6.62-2.48-6.62zm.64 18.81c-.54-.95.33-2.09.33-2.09-.27 0-.81.9-.81.9a1.85 1.85 0 0 1 1.79-1.84 1.09 1.09 0 0 0-.07.69 4.55 4.55 0 0 0 1.53-.66c-.07.84-.15 1.25-1.33 1.77s-.88 1.33-.88 1.33c.73-.2.44.12 1.47 0s1.77-1.43 1.77-1.43c.7-2.21-.91-6.85-.91-6.85 2.71 6.1.79 7.83.79 7.83-2.35 2.23-3.68.31-3.68.31zm7.87-3.92c-1.88-3.48-4.23-7-4.23-7 .44 1.45 2.09 5.81 2.09 5.81.69 2.62.48 4.4-1.14 6.19a2.24 2.24 0 0 1-3.15.56l.13-.46c3.57 1.37 5.11-3.15 3.37-7.44s-1.5-4.8-3.54-9c-2.44-5.06-1.29-8.39-1.29-8.39-.47 2.8 1.67 6.7 1.67 6.7l-.2.3c.13.92 2.75 4.77 2.75 4.77h-.52a7.6 7.6 0 0 0-.75-.87 7.77 7.77 0 0 0 1 1.9c.86 1.47 3.57 5.52 3.57 5.52l.3.29.12.28.4.17.06.51.35.23.09.36.59.18-.17.7.59.25-.2.72.57.36-.26.69.54.34-.27.76.52.3-.33.56.51.26-.35.48.47.08-.31.44.44.23-.3.45.44.35-.33.49.52.63-.62-.16a75.39 75.39 0 0 0-3.12-8.58zm1.38 8.73c-.84-.68-2.81-2.1-1.8-4.29a3 3 0 0 1 1.38-1.33l.22.6a4.12 4.12 0 0 0-.45.3s-.31.4.14 1.06c0 0 0 .16-.11.13s-.2-.62-.47-.56c0 0-1.22.28-.23 1.72 0 0 .44 2.16 6 3.44 0 0 7.45 1.62 7.41 4.44 0 0-.12 2.26-1.34 2.37 0 0-1.19 0-1.41.24 0 0-.16-.64-.74-.18V55a2.09 2.09 0 0 0-1 .43s-1.85-1.23-2.18-2a2.55 2.55 0 0 1 .39-1.15l-.8.42a8.11 8.11 0 0 0 .39-1.45l-.78.29.24-.92-.62.15s.41-1-.7-1c0 0-1.34.19-.79 1.82a6.82 6.82 0 0 0 .88 1.22 18.73 18.73 0 0 0 29-1c.1-.16.15-.25.15-.25.56-1.63-.78-1.82-.78-1.82-1.11 0-.7 1-.7 1l-.62-.15.24.92-.78-.29a8.14 8.14 0 0 0 .39 1.45l-.8-.42a2.58 2.58 0 0 1 .39 1.15c-.33.77-2.18 2-2.18 2a2.1 2.1 0 0 0-1-.43v.54c-.57-.45-.73.18-.73.18-.23-.27-1.41-.24-1.41-.24-1.22-.11-1.34-2.37-1.34-2.37 0-2.83 7.41-4.44 7.41-4.44 5.54-1.28 6-3.44 6-3.44 1-1.44-.23-1.72-.23-1.72-.28-.06-.47.56-.47.56L586 44c.44-.66.14-1.06.14-1.06a4.27 4.27 0 0 0-.45-.3l.22-.6a3 3 0 0 1 1.38 1.29c1 2.19-1 3.62-1.81 4.29a7.92 7.92 0 0 0-1.54 1.95l-.21-.68-.37.65c-1.35-1-2.62.23-3 .64s-1.74 2.39-1.74 2.39a2.1 2.1 0 0 0-1.49.09l-.43-2.35a2.55 2.55 0 0 0-.34.25s.2 2.34.2 2.44-.44-2.34-.44-2.34l-.37.19.09 1.78-.84-1.27.11 1.76-.49-1.42a2.92 2.92 0 0 0-.83 1.2c-.29 2.95 2.81 1.59 2.81 1.59 2-.79 3.8-3.91 3.8-3.91a5 5 0 0 1 .78-.84c2-.94 2.23.76 2.23.76a3.45 3.45 0 0 1-.78 2.17c-1.81 2.57-7.49 7.1-14.9 7.18-7.45-.08-13.16-4.66-14.93-7.22v-.13a3.34 3.34 0 0 1-.69-2s.23-1.69 2.23-.76a5.1 5.1 0 0 1 .79.84s1.81 3.12 3.8 3.91c0 0 3.1 1.36 2.81-1.59a2.93 2.93 0 0 0-.83-1.2l-.49 1.42.11-1.76-.84 1.23.09-1.78-.37-.19S559 53.05 559 53s.2-2.44.2-2.44a2.51 2.51 0 0 0-.34-.25l-.43 2.35a2.1 2.1 0 0 0-1.49-.09s-1.4-2-1.73-2.39-1.6-1.68-3-.64l-.37-.65-.21.68a7.87 7.87 0 0 0-1.53-1.99zm2.91 5.84a19.45 19.45 0 0 0 29.44 0 8.87 8.87 0 0 0 1.88 4.7c-1.64 2-7.26 6.47-16.3 6.47h-.6c-9 0-14.66-4.49-16.3-6.47a8.84 8.84 0 0 0 1.88-4.7zm15 12.1h-.5c-12.08-.35-17.14-7.07-17.14-7.07a5 5 0 0 0 .38-.34C552.16 60 558 65 567.48 64.94h.5c9.53 0 15.33-4.9 16.77-6.8.12.12.25.23.38.34s-5.07 6.72-17.13 7.08zm-3.05-2a1.2 1.2 0 0 0 1.28-1.24 1.15 1.15 0 1 0-1.28 1.24zm-.48-1.41c0-.19.09-.69.46-.86a.55.55 0 0 1 .27 0 .54.54 0 0 1 .44.33 1.34 1.34 0 0 1 .08.69 1.52 1.52 0 0 1-.22.7.56.56 0 0 1-.52.25c-.14 0-.49-.13-.53-.71a2 2 0 0 1 .01-.36zm-1.94 1c.5.11.84-.12.87-.27a.11.11 0 0 0-.08-.14h-.14a.72.72 0 0 1-.45 0c-.4-.09-.66-.55-.5-1.22s.46-.8.78-.73.32.25.38.42a.22.22 0 0 0 .41 0c0-.21-.19-.58-.69-.69a1.32 1.32 0 0 0-.57 2.56zm5.46.49h.33c.05 0 .08 0 .07-.08v-1h.2c.54 0 1-.26 1-.81 0-.74-.82-.71-1-.7a2.83 2.83 0 0 0-.62.08s-.05 0-.05.11l.1 2.29c-.11.15-.1.17-.02.17zm.47-2.28a.46.46 0 0 1 .56.45c0 .43-.29.5-.54.51h-.14v-.94zm-11.35-.2l1.1.52h.1l.08-.17v-.09l-.73-.35.91-1.9v-.1l-.3-.14h-.1l-1 2.13c-.17.12-.11.14-.07.16zm-3.3-2l.18.13h.1l1-1.41V60.1l.16.11h.1l1.34-1.95v-.1l-.18-.13h-.1l-.9 1.3v-2c0-.07 0-.08-.06-.12l-.22-.15h-.11L553.78 59c-.04.12-.02.14.02.17zm-.78-.65h.11l1.54-1.78v-.11l-.25-.22h-.11l-1.54 1.78v.11zm6.68 3.86a1.2 1.2 0 0 0 1.53-.91 1.16 1.16 0 0 0-.64-1.55 1.17 1.17 0 0 0-1.52.85 1.16 1.16 0 0 0 .62 1.63zm-.24-1.13a2.07 2.07 0 0 1 .09-.35c.06-.18.25-.65.64-.73a.53.53 0 0 1 .27 0 .54.54 0 0 1 .35.42 1.33 1.33 0 0 1-.08.69 1.5 1.5 0 0 1-.37.64.56.56 0 0 1-.56.13c-.12-.04-.44-.2-.35-.78zm.87-50.42a4.3 4.3 0 0 0 2.58 3.61 5.18 5.18 0 0 0 2.39 2l-1.76.37a7.87 7.87 0 0 1-1.37.08h-.46l.72 1.35.23-.1a4.94 4.94 0 0 1 .9-.2l.28.42h.06a2 2 0 0 0 1 .29 1.89 1.89 0 0 0 1.16-.4 6.36 6.36 0 0 1 1.18-.68l.12-.06.06-.31c.39.42 1.71 1.73 3 1.73h.25a1.34 1.34 0 0 0 .67-.35 5.17 5.17 0 0 0 1.49.26c1.37 0 1.69-.85 1.7-.89v-.13l-.07-.11a.62.62 0 0 0-.52-.32.87.87 0 0 0-.64.39.46.46 0 0 1-.33.09 4.46 4.46 0 0 1-1.56-.48.88.88 0 0 0-.35-.08.92.92 0 0 0-.73.41 6.8 6.8 0 0 1-2-1h.15a4.93 4.93 0 0 0 4.05-2.27 4.3 4.3 0 0 0 2.58-3.61 3.43 3.43 0 0 0 .88-3.75 3.7 3.7 0 0 0-1.24-3.7c0-.18-.27-1.78-2.78-2.34h-.17a5.18 5.18 0 0 0-2.23-.9l-.81-.14.47.61a9.83 9.83 0 0 0 1.88 1.7h.05a5.2 5.2 0 0 0 2.21 1.82 6.71 6.71 0 0 0 1 2.91 5.14 5.14 0 0 0-.71 3.06 5.58 5.58 0 0 0-2.12 3.15 7.48 7.48 0 0 0-3.77 1.7 7.45 7.45 0 0 0-3.77-1.7 5.57 5.57 0 0 0-2.13-3.15 5.14 5.14 0 0 0-.71-3.06 6.7 6.7 0 0 0 1-2.91 5.2 5.2 0 0 0 2.21-1.82h.05a9.84 9.84 0 0 0 1.88-1.7l.47-.61-.78.11a5.16 5.16 0 0 0-2.23.9h-.17c-2.51.56-2.76 2.16-2.78 2.34a3.7 3.7 0 0 0-1.24 3.7 3.42 3.42 0 0 0 .75 3.79zm2.44 3.18a4 4 0 0 1-2.11-3 .65.65 0 0 0 .41.15h.17a10.63 10.63 0 0 0 1.63 2.35.65.65 0 0 0-.12.38.61.61 0 0 0 .02.12zm2.55 2.78l.1-.35a4.53 4.53 0 0 0 1.12.24 4.42 4.42 0 0 0-.72.5 2.6 2.6 0 0 1-.48.17l-.1-.1a1.8 1.8 0 0 1 .08-.44zm-2.78 1l-.39-.72a8.16 8.16 0 0 0 1.44-.06l1.47-.31s-.16.57 0 .69a16.34 16.34 0 0 0-2.52.47zm4.6-.52a7.07 7.07 0 0 0-1.25.73 1.65 1.65 0 0 1-1.86.07l-.19-.28a6.78 6.78 0 0 0 2.11-.43 3 3 0 0 1 1.3-.69zm4.21.31s1.69.88 2.19.32c0 0 .4-.6.73-.09 0 0-.42 1.18-2.75.49l.23-.28-.43-.09s-.28-.06-.67-.18a.57.57 0 0 1 .71-.1zm1.37-3.57a.61.61 0 0 0 0-.14.65.65 0 0 0-.12-.38 10.54 10.54 0 0 0 1.62-2.35h.18a.65.65 0 0 0 .41-.15 4 4 0 0 1-2.09 3.02zm2.35-3.54a.66.66 0 0 0-.3-.52 8.32 8.32 0 0 0 .51-2.21.66.66 0 0 0 .47-.29 3 3 0 0 1-.68 3.04zm-.34-6.68a3.39 3.39 0 0 1 1 2.87.65.65 0 0 0-.47-.24 7.58 7.58 0 0 0-.73-2.24.66.66 0 0 0 .19-.36zm-.41-.72a.64.64 0 0 0-.24 0 .66.66 0 0 0-.32.09 6.78 6.78 0 0 0-1.53-1.25.7.7 0 0 0 0-.2.71.71 0 0 0 0-.25 2.86 2.86 0 0 1 2.09 1.64zM571 1.68a.61.61 0 0 0 0 .13 8.55 8.55 0 0 1-1.51-1.39 5.25 5.25 0 0 1 1.84.66.66.66 0 0 0-.33.6zm2.5 2.18a4.89 4.89 0 0 1-1.9-1.52h.06a.66.66 0 0 0 .52-.26 6.72 6.72 0 0 1 1.46 1.19.62.62 0 0 0-.14.58zm.27.39a.65.65 0 0 0 .37.12.66.66 0 0 0 .23 0 7.37 7.37 0 0 1 .7 2.16.66.66 0 0 0-.43.4 6.42 6.42 0 0 1-.93-2.69zm.87 3.06a.65.65 0 0 0 .48.44 8.3 8.3 0 0 1-.49 2.13h-.15a.65.65 0 0 0-.48.12 4.83 4.83 0 0 1 .58-2.7zm-.81 3.14a.44.44 0 0 0 0 .08.66.66 0 0 0 .28.54 10.42 10.42 0 0 1-1.58 2.29.66.66 0 0 0-.38-.12.64.64 0 0 0-.23 0 5.29 5.29 0 0 1 1.85-2.8zm-2.15 3.91a.66.66 0 0 0 .47.19h.07a4.53 4.53 0 0 1-3.93 1.86.65.65 0 0 0 .23-.49v-.07a11.75 11.75 0 0 0 3.1-1.5zm-.14-.73a.65.65 0 0 0-.06.26.66.66 0 0 0 .07.29 11.5 11.5 0 0 1-3.11 1.45.66.66 0 0 0-.46-.36 7.14 7.14 0 0 1 3.5-1.66zm-3.58 3a7.76 7.76 0 0 0 3.39 1.62 1.12 1.12 0 0 1-.65.41c-1.43.2-3.11-1.75-3.11-1.75zm-3.88-3a7.12 7.12 0 0 1 3.57 1.65.66.66 0 0 0-.41.37 11.47 11.47 0 0 1-3.24-1.49.64.64 0 0 0 .07-.29.66.66 0 0 0-.07-.26zm3.11 2.23a.65.65 0 0 0 .22.49 4.52 4.52 0 0 1-4-1.85h.07a.66.66 0 0 0 .46-.19 11.75 11.75 0 0 0 3.19 1.54zm-5.4-5.41a5.3 5.3 0 0 1 1.91 2.82.64.64 0 0 0-.61.08 10.42 10.42 0 0 1-1.58-2.29.66.66 0 0 0 .28-.54.6.6 0 0 0-.06-.08zm-.19-.4a.65.65 0 0 0-.46-.19h-.15a8.27 8.27 0 0 1-.49-2.13.66.66 0 0 0 .48-.44 4.85 4.85 0 0 1 .56 2.71zm-.63-3.18a.66.66 0 0 0-.43-.4 7.41 7.41 0 0 1 .7-2.16.66.66 0 0 0 .23 0 .65.65 0 0 0 .37-.12 6.42 6.42 0 0 1-.93 2.68zM566 .42a8.73 8.73 0 0 1-1.48 1.39.67.67 0 0 0 0-.13.66.66 0 0 0-.38-.59A5.23 5.23 0 0 1 566 .42zm-2.12 1.92h.12a4.88 4.88 0 0 1-1.9 1.52.63.63 0 0 0-.14-.58 6.7 6.7 0 0 1 1.46-1.19.65.65 0 0 0 .47.25zm-.61-.91a.63.63 0 0 0 0 .45 6.79 6.79 0 0 0-1.53 1.25.65.65 0 0 0-.32-.09.64.64 0 0 0-.24 0 2.87 2.87 0 0 1 2.1-1.61zm-2.51 2.38a.65.65 0 0 0 .22.39 7.51 7.51 0 0 0-.73 2.24.65.65 0 0 0-.47.24 3.39 3.39 0 0 1 .99-2.87zm-1 3.65a.66.66 0 0 0 .47.29 8.32 8.32 0 0 0 .51 2.21.66.66 0 0 0-.3.52 3 3 0 0 1-.69-3.02zm16.87 54.43c0 .06 0 .06.1 0l.2-.09c.06 0 .06 0 0-.1l-.71-1.57 1.83 1.06h.11l.18-.08s.06 0 0-.09l-1-2.15c0-.05 0-.06-.09 0l-.2.09c-.05 0-.06 0 0 .09l.65 1.44-1.69-1h-.13l-.25.11s-.07 0 0 .1zm1.16-3s.05.06.11 0l.46-.27 1 1.82c0 .06.06.06.12 0l.28-.16c.05 0 .05-.06 0-.11l-1-1.83.47-.27c.06 0 .06-.06 0-.11l-.09-.15c0-.05-.06 0-.1 0l-1.35.78s-.06 0 0 .1zm-8 4.68h.23c.06 0 .07 0 .08-.08l.16-.74.72-.09.35.68c0 .06 0 .06.11.05h.36s.06 0 .05-.05L570.63 61H570.34c-.06 0-.06 0-.08.08l-.55 2.42a.43.43 0 0 0 0 .07s.03.05.05.05zm.69-2l.38.78-.54.07zm.87-57.16L571 4.2a.25.25 0 0 0-.35 0l-3.05 3.08a9.83 9.83 0 0 1-1-1.34 6.58 6.58 0 0 0-.51-2.26.09.09 0 0 0-.07-.06.09.09 0 0 0-.09 0 1.42 1.42 0 0 0-.23.83 5.91 5.91 0 0 1-.12-.87.09.09 0 0 0-.06-.08.09.09 0 0 0-.1 0 1.33 1.33 0 0 0-.49 1.1l-.09-.18a.09.09 0 0 0-.17 0 1.87 1.87 0 0 0 1.08 2.27 9.86 9.86 0 0 1 1.34 1l-1.01 1.11a1.82 1.82 0 0 0-1-.31 1.15 1.15 0 0 0-.84.33 1.29 1.29 0 0 0-.24 1.34c.15.57.16 1 0 1.18a.1.1 0 0 0 0 .13.1.1 0 0 0 .12 0 1.89 1.89 0 0 1 .63-.1 1.8 1.8 0 0 1 .46.06l.2.07a1.59 1.59 0 0 0 .39.05 1.15 1.15 0 0 0 .84-.33 1.46 1.46 0 0 0 0-1.82l1.06-1.06.08.09a20.92 20.92 0 0 0 3.38 3.1h.06a.1.1 0 0 0 .1-.13v-.08a21.17 21.17 0 0 0-3-3.32l-.09-.08 1.4-1.4.24.24a.1.1 0 0 0 .14 0l.24-.24h.06l.25.25v.06l-.24.24a.11.11 0 0 0 0 .07.11.11 0 0 0 0 .07l.24.24a.26.26 0 0 0 .35 0l.31-.32a.25.25 0 0 0 0-.35l-.94-.93.14-.14.24.24a.1.1 0 0 0 .15 0l.26-.26h.06l.24.25-.26.26a.1.1 0 0 0 0 .14l.24.24a.25.25 0 0 0 .35 0l.31-.31A.25.25 0 0 0 572 6l-.93-.93.22-.22a.25.25 0 0 0 .03-.37zm-4.89 1.49l-.68.68a1.67 1.67 0 0 1-1-1.9c.1.19.27.53.43.81l.11-.06a1.42 1.42 0 0 1 .11-1.69 5.18 5.18 0 0 0 .33 1.47h.12a3 3 0 0 1 .12-1.38 6.28 6.28 0 0 1 .46 2.07zm-.52 4.61c-.08.09-.37.39-.5.26a.31.31 0 0 1-.12-.4.1.1 0 0 0-.09-.14.35.35 0 0 1-.14 0 .33.33 0 0 1-.26-.15.1.1 0 0 1 0-.08.85.85 0 0 1 .3-.43.52.52 0 0 1 .49-.21 2.13 2.13 0 0 0 .08.51.11.11 0 0 0 .07.07 2.31 2.31 0 0 0 .49.08.54.54 0 0 1-.32.48zm6.36 52.67c0 .06 0 .07.09.05l.3-.07c.07 0 .07 0 .06-.1l-.2-.87s0-.09.05-.11a.15.15 0 0 1 .15.06l.72.76c0 .05.06.06.13 0l.35-.08s.07 0 .06-.07a.16.16 0 0 0 0-.06l-.88-.86a.71.71 0 0 0 .39-.78.67.67 0 0 0-.34-.46 1.18 1.18 0 0 0-.76 0 2.62 2.62 0 0 0-.56.18s-.05.05 0 .13zm.12-2.27a.43.43 0 0 1 .6.35.45.45 0 0 1-.31.57l-.22.05-.22-.93zm2.16 1.68c0 .07 0 .07.11.05l1.17-.39c.06 0 .07 0 .06-.07l-.06-.2c0-.06-.05-.06-.1 0l-.8.27-.26-.78.67-.22c.05 0 .07 0 .05-.09l-.06-.16c0-.06 0-.06-.09 0l-.67.22-.23-.69.8-.27c.06 0 .08 0 .05-.1l-.05-.16c0-.07-.05-.05-.1 0l-1.17.39c-.06 0-.07 0 0 .12zm6.17-2.88c0 .05.07 0 .11 0l.27-.18s.06-.05 0-.11l-1.3-2c0-.05-.06-.05-.1 0l-.28.18c-.05 0 0 .06 0 .1zm.7-1.84h.22c.32-.06.52-.1.68.1a.33.33 0 0 1-.06.47.43.43 0 0 1-.48 0 .3.3 0 0 0-.33 0 .21.21 0 0 0 0 .3.72.72 0 0 0 1 0 .74.74 0 0 0 .19-1.08.85.85 0 0 0-.93-.25h-.18c-.26.06-.46.1-.6-.09a.3.3 0 0 1 0-.44.4.4 0 0 1 .42 0 .24.24 0 0 0 .27 0 .2.2 0 0 0 0-.29c-.12-.16-.51-.2-.88.09a.69.69 0 0 0-.17 1 .79.79 0 0 0 .86.19zm-11.82-29.65l.06.48h.25c0-.14-.07-.31-.11-.48zm.16-.81a10 10 0 0 0 .21 1.29h.83l-.23-1zm22.38-8.49s.72 3-2.2 6.07a.08.08 0 0 0 0 .12h.06a.08.08 0 0 0 .06 0c3-3.16 2.25-6.19 2.24-6.22a.08.08 0 0 0-.1-.06.08.08 0 0 0-.05.09zm-22.47 8.45l-.18-.06.11.81h.19a7.3 7.3 0 0 1-.12-.75zm-.89-.31l-.23 1.63h.65l-.09-1.52zm-1.12 1.63h.61l.26-1.72-.26-.09zm1.55-1.49v.51h.19v.1h-.19v.85h.27l-.19-1.42zm1.74.6l.17.57h.23l-.16-.48zm.34-3.25h.13l-.09-.09zm-.57 3.17l.11.49h.14l-.13-.44zm.13.58l.07.29h.17l-.09-.29zm.37.38h.23l-.07-.22h-.23zm16.8-4h.05a.08.08 0 0 0 .07 0 12.38 12.38 0 0 0 2.38-4.85.08.08 0 0 0-.07-.1.08.08 0 0 0-.1.07 12.27 12.27 0 0 1-2.38 4.74.08.08 0 0 0 0 .11zM564.41 24h.37v-.1l-.39.1zm.23-.55h.2l-.28.06zm2.11-1.35a1.86 1.86 0 0 0-1.65 1.21c-.38 1.81.52 2.46.63 2.53l6 2.06a4.08 4.08 0 0 1-.5-3.36 2.29 2.29 0 0 1 .87-1 26.43 26.43 0 0 1-5.15-1.39zm2.37 3.78a2.9 2.9 0 0 1-1.15-.3v.07c-.59-.24 1.88.25 1.16.25zm-1.56-.26a8.84 8.84 0 0 0 2.19.57 3.67 3.67 0 0 1-1.13-.16c.84.27 1.54.42 1.54.42l-1.28-.19a11.61 11.61 0 0 0 1.54.37l.08.09a13.78 13.78 0 0 1-1.83-.39 11.77 11.77 0 0 0 2.25.62V27l-1.22-.27a6.47 6.47 0 0 0 1.06.43l.46.16.09.21c-1.48-.4-5.74-2-5.74-2v-.17a.12.12 0 0 0 .17 0l-.17-.26a2.6 2.6 0 0 0 .5.26c.06 0 0-.14 0-.14a7.2 7.2 0 0 0 1 .31c-.22 0-.49-.38-.49-.38a5.79 5.79 0 0 0 .93.5zm.7-3.28l.18-.11h-.23l-.13.08h.11zm21.88-.22a.08.08 0 0 0 0 .11.08.08 0 0 0 .07 0 7 7 0 0 0 .78-3.07.08.08 0 0 0-.09-.08.09.09 0 0 0-.08.09 6.92 6.92 0 0 1-.69 2.97zm-22.8 5.93L567 28l-.15.29.33.13zm-.16.62h.4l.08-.24-.33-.13zm.51-1.44l-.25-.07-.36.68.3.12zm-.31 1l.32.12.25-.74-.27-.05v-.06zm.83-1.38l-.21-.07-.29.69.28.06zm-.3-.1l-.2-.07-.22.42.24.07zm.34 4.43a5.64 5.64 0 0 1 2.21.3 2.16 2.16 0 0 0 1.34 0 3.86 3.86 0 0 1-1.73-.28l-1-.12L568 31l-.38.1A2.78 2.78 0 0 1 566 31a2.7 2.7 0 0 0 2.24.18zm10 0v-.07a2.72 2.72 0 0 1-1.72-.36 1.28 1.28 0 0 0-1-.11 2.34 2.34 0 0 1 1.1.32c.52.33 1.21.65 1.58.24zm-7.52.66a1.51 1.51 0 0 0 1.49 0c.3-.12.35 0 .81.17a4.31 4.31 0 0 0 1.18.13 3.54 3.54 0 0 1-1.51-.55c-.34-.2-.44 0-1 .2a1.44 1.44 0 0 1-1.01.07zm4.54-.12a3 3 0 0 0 2.07.44c.5-.18.41-.18.41-.18a6.77 6.77 0 0 1-2.4-.38 1.34 1.34 0 0 0-1-.07 1.16 1.16 0 0 1 .88.22zm-.68-2.87A6.38 6.38 0 0 1 572 29l-.12.1a4.77 4.77 0 0 0 2.67-.22zm-.59 1.62v-.07c-6.9.84-11.08-1.41-11.6-1.71 4.54 2.78 11.6 1.78 11.6 1.78zm-.91-.52c-4.66.69-10.66-2-10.66-2 6.31 2.94 10.66 1.99 10.66 1.99zm3.9-.7a2.64 2.64 0 0 1 .9-.08c-.26-.17-.49-.11-1 0a1.54 1.54 0 0 1-.88 0 1.27 1.27 0 0 0 .99.07zm-32.32-10.09a.08.08 0 0 0-.08-.09.08.08 0 0 0-.09.08 7 7 0 0 0 .78 3.07.08.08 0 0 0 .07 0 .08.08 0 0 0 0-.11 7 7 0 0 1-.68-2.95zm.86 6h.06a.08.08 0 0 0 0-.12c-2.92-3.09-2.21-6-2.2-6.07a.08.08 0 0 0-.16 0s-.74 3.06 2.24 6.22a.08.08 0 0 0 .06-.06zm34.81 7.06a2.61 2.61 0 0 1 .9-.08c-.26-.17-.48-.11-1 0a1.55 1.55 0 0 1-.88 0 1.27 1.27 0 0 0 .98.05zm-11.71-9.83h.37l.07-.11h-.31zM567.22 32l1-.37a5.41 5.41 0 0 1-4.41-.58c.4.32 2.13 1.45 3.41.95zm-6.22-.33a2.21 2.21 0 0 0 1.69-.25l.7-.5s-.38.16-.76.37a3.26 3.26 0 0 1-1.63.38zm-3.58-.25s.37.88 3.55.72a7.56 7.56 0 0 1-3.55-.72zm.17-2.24a2.78 2.78 0 0 1-1.65 0 1.94 1.94 0 0 0 1.79.19c1.52-.44 2.27.5 4 .28a7.67 7.67 0 0 1-1.73-.27c-1.17-.38-1.25-.58-2.41-.19zm3.5 3zm8.11-9.46l.08-.55-.14.24-.07.29zm-8.42 8.53l.05-.07a2.71 2.71 0 0 1-1.72-.36 1.29 1.29 0 0 0-1-.11 2.34 2.34 0 0 1 1.1.32c.51.26 1.2.58 1.57.17zm3-.16l.08.06zm-18.68-11.4a.08.08 0 0 0-.07.1 12.38 12.38 0 0 0 2.38 4.85.08.08 0 0 0 .06 0h.05a.08.08 0 0 0 0-.12 12.24 12.24 0 0 1-2.35-4.78.08.08 0 0 0-.07-.05zm11.36 11.66a5.06 5.06 0 0 1-3 .39 3.22 3.22 0 0 0 2.22.14c.82-.44 1-.66 1.38-.62-.06 0-.19-.1-.6.09zm12.87-9.54v.12l.06-.1zm2.11 9l-3.49-.14a19 19 0 0 0 3.49.12z"/><path class="cls-1" d="M1218 0h172v66h-172z"/><path class="cls-2" d="M1269.32 43.75l1.94-2.33a6.86 6.86 0 0 0 4.47 1.82c1.35 0 2.16-.53 2.16-1.41 0-.83-.51-1.26-3-1.9-3-.77-5-1.6-5-4.57 0-2.71 2.18-4.51 5.23-4.51a8.66 8.66 0 0 1 5.56 1.9l-1.68 2.39a7 7 0 0 0-3.89-1.47c-1.26 0-1.92.58-1.92 1.3 0 1 .64 1.3 3.23 2 3 .79 4.74 1.88 4.74 4.49 0 3-2.26 4.64-5.49 4.64a9.52 9.52 0 0 1-6.35-2.35zM1287.65 34h-4.55v-3h12.39v3h-4.55v11.93h-3.29zM1296.6 38.49a8 8 0 0 1 15.9 0 8 8 0 0 1-15.9 0zm12.46 0a4.54 4.54 0 0 0-4.53-4.7 4.47 4.47 0 0 0-4.49 4.66 4.54 4.54 0 0 0 4.53 4.7 4.47 4.47 0 0 0 4.49-4.66zM1314.87 31h6.84a6 6 0 0 1 4.36 1.52 4.69 4.69 0 0 1 1.28 3.42 4.65 4.65 0 0 1-3.2 4.64l3.65 5.34h-3.85l-3.21-4.79h-2.59v4.79h-3.29zm6.62 7.26c1.6 0 2.52-.85 2.52-2.12 0-1.41-1-2.14-2.59-2.14h-3.27v4.29zM1330.38 31h11.28v2.9h-8v3h7.05v2.93h-7.05V43h8.12v2.93h-11.39zM1344.24 31h6.94a5.4 5.4 0 0 1 3.91 1.32 3.43 3.43 0 0 1 1 2.54 3.48 3.48 0 0 1-2 3.23c1.73.66 2.8 1.67 2.8 3.67 0 2.73-2.22 4.1-5.6 4.1h-7.12zm6.24 6c1.45 0 2.37-.47 2.37-1.58 0-1-.77-1.54-2.16-1.54h-3.25V37zm.88 6c1.45 0 2.33-.51 2.33-1.62 0-1-.75-1.62-2.44-1.62h-3.8V43zM1358.61 38.49a8 8 0 0 1 15.9 0 8 8 0 0 1-15.9 0zm12.46 0a4.54 4.54 0 0 0-4.53-4.7 4.47 4.47 0 0 0-4.49 4.66 4.54 4.54 0 0 0 4.53 4.7 4.47 4.47 0 0 0 4.49-4.66zM1379.67 38.32l-5-7.35h3.85l3.12 4.85 3.18-4.85h3.74l-5 7.31 5.21 7.65h-3.85l-3.35-5.13-3.38 5.13h-3.74zM1269.44 55.89l.53-.62a3.58 3.58 0 0 0 2.58 1.06c1 0 1.67-.54 1.67-1.28 0-.7-.38-1.09-2-1.43-1.73-.38-2.52-.93-2.52-2.17a2.22 2.22 0 0 1 2.47-2.05 3.92 3.92 0 0 1 2.64.92l-.49.65a3.3 3.3 0 0 0-2.17-.82c-1 0-1.6.54-1.6 1.21 0 .71.39 1.11 2 1.46s2.45 1 2.45 2.13c0 1.29-1.07 2.13-2.57 2.13a4.4 4.4 0 0 1-2.99-1.19zM1280.06 49.48h5.43v.77h-4.58v2.57h4.1v.77h-4.1v2.63h4.64V57h-5.48zM1290.51 49.48h.85v6.73h4.23V57h-5.08zM1300.42 49.48h5.4v.78h-4.55v2.68h4.07v.77h-4.07V57h-.85zM1316.71 55.89l.53-.62a3.58 3.58 0 0 0 2.58 1.06c1 0 1.67-.54 1.67-1.28 0-.7-.38-1.09-2-1.43-1.73-.38-2.52-.93-2.52-2.17a2.22 2.22 0 0 1 2.47-2.05 3.92 3.92 0 0 1 2.64.92l-.49.65a3.3 3.3 0 0 0-2.17-.82c-1 0-1.6.54-1.6 1.21 0 .71.39 1.11 2 1.46s2.45 1 2.45 2.13c0 1.29-1.07 2.13-2.57 2.13a4.4 4.4 0 0 1-2.99-1.19zM1329.15 50.26h-2.52v-.78h5.9v.78H1330V57h-.86zM1336.54 53.25a3.83 3.83 0 1 1 7.66 0 3.83 3.83 0 1 1-7.66 0zm6.78 0a3 3 0 0 0-3-3.1 3 3 0 0 0-2.94 3.08 3 3 0 0 0 3 3.1 3 3 0 0 0 2.94-3.08zM1349.25 49.48h3.23a3 3 0 0 1 2.14.75 2.07 2.07 0 0 1 .58 1.48 2.2 2.2 0 0 1-2 2.19l2.31 3.07h-1l-2.18-2.92h-2.15V57h-.85zm3.16 3.83c1.13 0 1.93-.58 1.93-1.55 0-.92-.71-1.48-1.92-1.48h-2.32v3zM1363.05 49.42h.79l3.42 7.57h-.91l-.88-2h-4.09l-.89 2h-.87zm2.09 4.82l-1.71-3.83-1.72 3.83zM1371.24 53.25a3.77 3.77 0 0 1 3.77-3.89 4 4 0 0 1 2.8 1l-.55.64a3.2 3.2 0 0 0-2.29-.86 2.93 2.93 0 0 0-2.86 3.08 2.9 2.9 0 0 0 3 3.12 3.54 3.54 0 0 0 2.17-.75v-1.85H1375V53h3.1v3a4.55 4.55 0 0 1-3 1.15 3.68 3.68 0 0 1-3.86-3.9zM1383.25 49.48h5.43v.77h-4.58v2.57h4.1v.77h-4.1v2.63h4.64V57h-5.48zM1241.74 3.21a15.18 15.18 0 0 0-15.16 15.17v6.07a1.8 1.8 0 0 0 1.8 1.8h1.56a1.8 1.8 0 0 0 1.8-1.8 1.83 1.83 0 0 0 0-.39v-.17l-.06-.14a1.8 1.8 0 0 0-1.1-1h-.12V22a1.15 1.15 0 0 1 1.12-1.16s.16-.13.18-.86v-1.61a10 10 0 1 1 20.1 0v9l5.12 1.25V18.37a15.18 15.18 0 0 0-15.24-15.16zm13.82 15.15a.16.16 0 0 1-.15.16.15.15 0 0 1-.16-.14 13.57 13.57 0 0 0-27 0 .16.16 0 0 1-.16.14.16.16 0 0 1-.15-.16v-.22a13.82 13.82 0 1 1 27.64 0z"/><path class="cls-2" d="M1261.1 35.13a.26.26 0 0 0 .23-.26V31a.26.26 0 0 0-.21-.25l-4-.82a.26.26 0 0 0-.3.18.25.25 0 0 0 0 .14l-14.79-3-15.51 3.18a.25.25 0 0 0 0-.13.26.26 0 0 0-.3-.19l-4 .82a.26.26 0 0 0-.21.25v3.78a.26.26 0 0 0 .25.26.25.25 0 0 0 .14 0V53a.25.25 0 0 0-.14 0 .26.26 0 0 0-.25.26v3.63a.26.26 0 0 0 .2.25l4 .85h.05a.26.26 0 0 0 .26-.26.25.25 0 0 0 0-.06l15.5 3.3 14.78-3.14a.25.25 0 0 0 0 .14.26.26 0 0 0 .24.18h.05l4-.85a.26.26 0 0 0 .2-.25v-3.84a.26.26 0 0 0-.26-.26h-.11V35.11zm-36.77 20.3V32.35l1-.16.26.07V55.6h-.3zm3.81.69h-.33l-1-.2v-24l1-.17.32.09zm2.86-24.73V56.7h-.35l-1.07-.22v-25l1.08-.18.35.09zm3-.48v26.45h-.39l-1.16-.24V31l1.17-.19.38.1zm3.31 27.1h-.41l-1.27-.26V30.47l1.27-.21.42.1zm3.18.75l-1.39-.29V29.9l1.39-.23zm18.43-3.13V32.18l.68.12.25.31v22.83zm-5.36 1.1V31.3l1.08.18v25zm-3 .62V30.81l1.16.19v26.11zm-3.3-27.08l1.27.21v27.28l-1.27.26zm9.09 25.89V31.77l1 .16V56l-1 .2zm-12.68-26.49l1.39.23v28.57l-1.39.29z"/><path class="cls-1" d="M1044 0h172v66h-172z"/><path class="cls-2" d="M1061.16 43.86c0 6.56-4.57 8.92-9.07 8.92a12.45 12.45 0 0 1-7.37-2.06 1.37 1.37 0 1 1 1.4-2.36 11 11 0 0 0 6 1.62 5.74 5.74 0 0 0 6-6.12v-1.51a6.73 6.73 0 0 1-6.34 3.61c-4.39 0-7.66-3.39-7.66-8.11a8.19 8.19 0 0 1 8.55-8.11c5.2 0 8.51 3.65 8.51 8.18zm-8.51-11.5a5.47 5.47 0 0 0 0 10.94 5.25 5.25 0 0 0 5.42-5.45 5.31 5.31 0 0 0-5.42-5.49M1064.3 38.19c0-5.86 3.13-8.48 8.33-8.48a1.49 1.49 0 0 1 0 3c-3.61 0-5.31 2.4-5.31 5.64v5.82a1.51 1.51 0 0 1-3 0zM1113 31.55a1.44 1.44 0 0 1 1.51-1.47 1.49 1.49 0 0 1 1.55 1.47V39c0 5.68-3.1 6.93-6.3 6.93a5.41 5.41 0 0 0-9.91 0c-3.21 0-6.3-1.25-6.3-6.93v-7.45a1.44 1.44 0 0 1 1.51-1.47 1.51 1.51 0 0 1 1.55 1.47V39c0 3.13 1.66 4.09 3.32 4.09s3.32-1 3.32-4.09v-7.45a1.53 1.53 0 0 1 3.06 0V39c0 3.13 1.73 4.09 3.39 4.09s3.32-1 3.32-4.09zM1118.83 26.69a1.36 1.36 0 0 1 1.44-1.4 1.39 1.39 0 0 1 1.48 1.4v3.39h3.1a1.42 1.42 0 1 1 0 2.84h-3.1v4.16c0 4.9 1.91 5.64 3.91 5.64a1.42 1.42 0 0 1 1.47 1.44 1.38 1.38 0 0 1-1.47 1.44c-4.86 0-6.82-2.4-6.82-8.51zM1129.52 44.3V20.43c0-1.88 3.06-1.88 3.06 0v12.78c.26-1.84 2.29-3.46 5.12-3.46 4.46 0 7.08 2.25 7.08 7.89v6.49a1.53 1.53 0 0 1-3.06 0v-6.5c-.07-3.54-1.92-4.9-4.75-4.9-2.47 0-4.16 1.59-4.39 4.42v7.15c0 1.84-3.06 1.84-3.06 0M1152.4 44.3V20.43c0-1.88 3.06-1.88 3.06 0v12.78c.26-1.84 2.28-3.46 5.12-3.46 4.46 0 7.07 2.25 7.07 7.89v6.49a1.53 1.53 0 0 1-3.06 0v-6.5c-.07-3.54-1.91-4.9-4.75-4.9-2.47 0-4.16 1.59-4.38 4.42v7.15c0 1.84-3.06 1.84-3.06 0M1183 31.55a1.45 1.45 0 0 1 1.55-1.47 1.42 1.42 0 0 1 1.51 1.47v6.67c0 5.34-3.21 7.74-7.63 7.74s-7.63-2.4-7.63-7.74v-6.67a1.42 1.42 0 0 1 1.51-1.47 1.47 1.47 0 0 1 1.55 1.47V38c0 3.28 1.66 5 4.57 5s4.57-1.73 4.57-5zM1189.12 20.2c0-1.88 3.06-1.88 3.06 0v13.23a6.75 6.75 0 0 1 6.34-3.61c4.39 0 7.67 3.43 7.67 8.11a8.19 8.19 0 0 1-8.55 8.11c-5.2 0-8.51-3.61-8.51-8.18zm8.51 23.21a5.47 5.47 0 0 0 0-10.94 5.25 5.25 0 0 0-5.42 5.45 5.29 5.29 0 0 0 5.42 5.49M1044.45 13.88a.74.74 0 0 1 1.47 0v4.47a2.32 2.32 0 0 1 2.15-1.15 2.71 2.71 0 0 1 2.7 3 3 3 0 0 1-3.18 2.94 2.94 2.94 0 0 1-3.14-3zm3.15 8a1.7 1.7 0 0 0 0-3.41 1.7 1.7 0 0 0 0 3.41M1058.6 18a.68.68 0 0 1 .72-.7.7.7 0 0 1 .75.7v2.3a2.86 2.86 0 0 1-5.72 0V18a.68.68 0 0 1 .73-.7.7.7 0 0 1 .74.7v2.16a1.39 1.39 0 1 0 2.78 0zM1066 23a4.84 4.84 0 0 1-2.08-.39.57.57 0 1 1 .41-1.06 4.48 4.48 0 0 0 1.67.29c.68 0 1.16-.19 1.16-.63 0-1.09-3.47-.07-3.47-2.26 0-1.63 1.57-1.82 2.52-1.82a4.71 4.71 0 0 1 1.8.33.55.55 0 1 1-.35 1 4.58 4.58 0 0 0-1.46-.27c-.53 0-1 .09-1 .56 0 1 3.47.08 3.47 2.36 0 1.58-1.76 1.82-2.67 1.82M1072.2 16a.8.8 0 0 1 1.6 0 .8.8 0 0 1-1.6 0m0 2a.74.74 0 0 1 1.47 0v2.6c0 .73.08 1 .33 1 .55.1.59 1.3-.29 1.3s-1.51-.62-1.51-1.8zM1082 20.09a1.39 1.39 0 1 0-2.78 0v2.14a.7.7 0 0 1-.73.7.68.68 0 0 1-.73-.7V20a2.86 2.86 0 0 1 5.71 0v2.27a.7.7 0 0 1-.75.7.68.68 0 0 1-.72-.7zM1088.6 20.36a1.81 1.81 0 0 0 2 1.43 3.89 3.89 0 0 0 1.43-.32.61.61 0 0 1 .8.52.73.73 0 0 1-.32.63 2.6 2.6 0 0 1-.92.35 5.76 5.76 0 0 1-1.23.12 3 3 0 0 1-3.26-2.94 2.94 2.94 0 0 1 3.11-3c1.72 0 2.72 1 2.72 1.94s-.92 1.71-2.38 1.71a4.21 4.21 0 0 1-1.92-.45m.07-.73a4.54 4.54 0 0 0 1.14.33c1 .12 1.6-.24 1.68-.69s-.41-.84-1.31-.84a1.64 1.64 0 0 0-1.51 1.2M1098.55 23a4.84 4.84 0 0 1-2.08-.39.57.57 0 1 1 .41-1.06 4.47 4.47 0 0 0 1.67.29c.68 0 1.16-.19 1.16-.63 0-1.09-3.47-.07-3.47-2.26 0-1.63 1.57-1.82 2.52-1.82a4.71 4.71 0 0 1 1.8.33.55.55 0 1 1-.34 1 4.61 4.61 0 0 0-1.46-.27c-.53 0-1 .09-1 .56 0 1 3.47.08 3.47 2.36 0 1.58-1.76 1.82-2.67 1.82M1106.89 23a4.85 4.85 0 0 1-2.08-.39.57.57 0 1 1 .41-1.06 4.48 4.48 0 0 0 1.67.29c.68 0 1.16-.19 1.16-.63 0-1.09-3.47-.07-3.47-2.26 0-1.63 1.57-1.82 2.52-1.82a4.68 4.68 0 0 1 1.8.33.55.55 0 1 1-.34 1 4.61 4.61 0 0 0-1.46-.27c-.53 0-1 .09-1 .56 0 1 3.47.08 3.47 2.36 0 1.58-1.76 1.82-2.67 1.82M1076.71 38.09a5.93 5.93 0 1 1 5.93 5.93 5.93 5.93 0 0 1-5.93-5.93m-2.76 0a8.69 8.69 0 1 0 8.69-8.69 8.69 8.69 0 0 0-8.69 8.69M1210.45 28.49a.55.55 0 0 0-.47.27l-1.08 1.87a.55.55 0 0 0 0 .55l1.08 1.87a.55.55 0 0 0 .47.27h2.16v-1.08h-1.85l-.76-1.32.76-1.33h1.85v-1.1z"/><path class="cls-2" d="M1209.54 27a.47.47 0 0 0-.41.24l-2 3.45a.48.48 0 0 0 0 .48l2 3.45a.47.47 0 0 0 .41.24h4a.47.47 0 0 0 .41-.24l2-3.45a.48.48 0 0 0 0-.48.48.48 0 0 0-.41-.24h-4v1h3.17l-1.44 2.5h-3.44l-1.72-3 1.72-3h3.44l.91 1.6.83-.47-1.05-1.84a.47.47 0 0 0-.41-.24zM927.13 34.26v18.91c.57 0 1.26-.14 2.07-.14s1.38.08 2.07.14V34.26c-.69.06-1.38.15-2.07.15s-1.37-.09-2.06-.15M976.62 34.26v18.91c.69-.06 1.37-.14 2.06-.14s1.37.08 2.07.14V34.26c-.69.06-1.38.15-2.07.15s-1.37-.09-2.06-.15M965.61 34.26h-9.47v18.9h7.75c5.68 0 10.08-3.72 10.08-10 0-4.55-2.44-8.69-8.36-8.91m-3 17.29h-2.31V35.87h2.7c3.9 0 6.37 2.05 6.37 7.27 0 6.49-2.91 8.41-6.73 8.41M997.23 44.67v6.17a5.85 5.85 0 0 1-3 .74c-4.08 0-6.44-2.74-6.44-7.33 0-4.43 2.2-8.41 6.69-8.41a6.3 6.3 0 0 1 5.28 2.69h.38a9.67 9.67 0 0 1 .75-2.66 12.82 12.82 0 0 0-6.47-1.61c-6.2 0-11.09 3.35-11.09 9.91 0 6.2 5 9 10.71 9a27.59 27.59 0 0 0 7.17-1.19v-7.31c-.67.06-1.34.13-2 .13s-1.34-.08-2-.13M1014.26 35.06c-6.55 0-10.36 4.25-10.36 9.5 0 6 3.92 9.41 9.73 9.41 6.44 0 10.38-4.38 10.36-9.52 0-4.09-2.23-9.39-9.73-9.39m-.5 17.33c-3.95 0-5.5-3.64-5.5-7.07 0-5.91 2.18-8.67 5.84-8.67 3.94 0 5.52 3.91 5.52 7.31 0 4.37-1.81 8.44-5.86 8.44M951.12 34.35c-.36 0-.84-.06-1.2-.09v12.66c-3.76-4.35-7.73-8.46-11.5-12.66h-2.68v18.91c.34 0 .83-.08 1.19-.08s.8 0 1.16.08V39.78l3 3.14c3.06 3.29 5.78 6.68 8.93 10.24h2.31v-18.9c-.35 0-.84.09-1.19.09M1022.08 53.43a1.94 1.94 0 0 1 0 3.88 1.94 1.94 0 0 1 0-3.88m0 .38a1.56 1.56 0 1 0 1.48 1.56 1.51 1.51 0 0 0-1.48-1.56zm-.32 2.64h-.45v-2.16a4.42 4.42 0 0 1 .68-.06 1.19 1.19 0 0 1 .74.17.57.57 0 0 1 .19.47.53.53 0 0 1-.41.5c.2 0 .31.2.35.52a1.8 1.8 0 0 0 .12.54h-.48a2.16 2.16 0 0 1-.13-.57.35.35 0 0 0-.4-.33h-.22zm0-1.24h.22c.26 0 .47-.1.47-.31s-.13-.32-.44-.32h-.26zM916 40.54a13 13 0 0 1 5.2 2.35.87.87 0 0 0 .8.11c.65-.4.49-1.23.39-1.79-.08-.38-.18-.76-.3-1.16a12.65 12.65 0 0 0-1.93-3.42 10.2 10.2 0 0 0-3.38-2.92A9 9 0 0 0 906.2 35a8.75 8.75 0 0 0-2.63 6.39 5.8 5.8 0 0 0 5.8 5.79 5.77 5.77 0 0 0 4.55-2.21 4 4 0 0 0-3.14-6.55 3.94 3.94 0 0 0-2.71 1s-.14.13-.28 0 0-.41 0-.41a4.65 4.65 0 0 1 8.21 1.53"/><path class="cls-2" d="M902.18 41.12a19 19 0 0 1-8.48-14.89 13 13 0 0 1 4.81-10.91l.09-.07a28.33 28.33 0 0 1 16.68-6.54c2.19-.16 1.56.84 1 1.83a12.15 12.15 0 0 0-1 6.33c.26 2.14 1.24 2.38 1.61 6a13.51 13.51 0 0 1-1.62 7.32 1 1 0 0 1-.94.6 13.6 13.6 0 0 0-6.33 1.29 9.89 9.89 0 0 0-5.85 9"/><path class="cls-2" d="M906.1 47.75a17.72 17.72 0 0 1-12 .33s-6.1-1.81-6.1-9.85v-.22a29.52 29.52 0 0 1 2.26-11.63c.21-.53.53-1.47 1.29-1.47s.78 1.18.78 1.18a32.05 32.05 0 0 0 .59 4.49 17.57 17.57 0 0 0 9.35 12 7.17 7.17 0 0 0 3.81 5.16M916.15 42a12 12 0 0 1 3.58 1.61s3 1.9 1.62 4.72a12.2 12.2 0 0 1-5.89 5.89c-.5.22-1.39.72-2 .3a.79.79 0 0 1-.12-1 14 14 0 0 0 .92-6.91 5.87 5.87 0 0 0 1.89-4.61"/><path class="cls-2" d="M913.11 47.48a7.24 7.24 0 0 1-5.63.8A17 17 0 0 1 895 49.7l-.67-.2s-1.11-.39-1.38.31.4 1.33.82 1.72a18.66 18.66 0 0 0 12.77 5 12.73 12.73 0 0 0 2.38-.16 3.47 3.47 0 0 0 2.43-1.64 15.47 15.47 0 0 0 1.7-7.23M927.13 12h2.34v7.73a4.15 4.15 0 0 1 1.68-1.65 4.52 4.52 0 0 1 2.4-.67c1.73 0 4.49 1.07 4.49 5.52v8h-2.34v-7.71c0-2.1-.77-3.84-3-3.84a3.39 3.39 0 0 0-3.14 2.35 2.81 2.81 0 0 0-.16 1.12v8.08h-2.34V12M946.59 30.93c-3.45 0-6.16-2.56-6.16-6.62 0-4.31 2.84-6.84 6.37-6.84 3.69 0 6.18 2.69 6.18 6.6 0 4.79-3.32 6.86-6.37 6.86m.08-1.75c2.23 0 3.91-2.1 3.91-5 0-2.18-1.1-4.92-3.85-4.92s-3.93 2.55-3.93 5c0 2.82 1.59 5 3.85 5zM958.42 14v3.46h3.34v1.74h-3.34v7.29c0 1.59.45 2.5 1.75 2.5a4.28 4.28 0 0 0 1.35-.16l.1 1.79a6.54 6.54 0 0 1-2.07.32 3.32 3.32 0 0 1-2.52-1 5.06 5.06 0 0 1-.9-3.38V19.2h-2.26v-1.79h2.26v-2.74l2.28-.72M966.33 24.62c.05 3.17 2 4.47 4.37 4.47a8.83 8.83 0 0 0 3.56-.64l.42 1.65a10.52 10.52 0 0 1-4.3.82c-3.93 0-6.31-2.63-6.31-6.49s2.31-7 6-7c4.2 0 5.28 3.7 5.28 6.07a6.44 6.44 0 0 1-.08 1.12h-9m6.82-1.68c0-1.46-.61-3.8-3.21-3.8-2.39 0-3.4 2.18-3.58 3.8zM978.41 12.03h2.34v18.9h-2.34z"/><path class="cls-1" d="M870 0h172v66H870zM1392 0h172v66h-172z"/><path class="cls-2" d="M1430.16 61.87v-3.5h-4.27v3.5h-1V54h1v3.5h4.27V54h1v7.84zM1437.19 62a4.06 4.06 0 1 1 4.13-4.07 4 4 0 0 1-4.13 4.07zm0-7.23a3.19 3.19 0 1 0 3.11 3.23 3.09 3.09 0 0 0-3.11-3.22zM1445.71 54.9v7h-1v-7h-2.61V54h6.22v.87zM1450.37 61.87V54h4.16v.87h-3.15v2.63h2.62v.87h-2.62V61h3.62v.87zM1457 61.87V54h1v7h3.55v.87zM1465.51 61.94a3.68 3.68 0 0 1-2-.56l-.12-1a3.56 3.56 0 0 0 2.19.75 1.39 1.39 0 0 0 1.57-1.32c0-.79-.45-1.22-1.48-1.58-1.38-.46-2.07-1.14-2.07-2.23a2.09 2.09 0 0 1 2.35-2 3.15 3.15 0 0 1 1.66.44l-.2.81a2.8 2.8 0 0 0-1.49-.45 1.24 1.24 0 0 0-1.4 1.14c0 .64.43 1 1.34 1.35 1.37.49 2.24 1.11 2.24 2.45s-.98 2.2-2.59 2.2zM1477.78 61.87l-.79-.79a3.61 3.61 0 0 1-2.47.92 2.22 2.22 0 0 1-2.43-2.08 2.48 2.48 0 0 1 1.54-2.22 2.84 2.84 0 0 1-1-1.92 1.91 1.91 0 0 1 2-1.91 2 2 0 0 1 2.07 1.91c0 .82-.49 1.5-1.55 2.11l1.88 1.89a5.8 5.8 0 0 0 .86-1.73l.64.64a6 6 0 0 1-.87 1.72l1.46 1.46zm-3.54-3.54c-.73.39-1.19.83-1.19 1.55a1.4 1.4 0 0 0 1.52 1.3 2.61 2.61 0 0 0 1.78-.73zm.33-3.64a1 1 0 0 0-1.07 1c0 .52.34.92 1 1.52.87-.48 1.27-.95 1.27-1.46a1.09 1.09 0 0 0-1.2-1.06zM1487.55 61.87l-2.55-3.51h-1v3.51h-1V54h2.26a2.2 2.2 0 0 1 2.34 2.16 2.06 2.06 0 0 1-1.46 2l2.72 3.68zm-2.51-7H1484v2.62h1.11a1.32 1.32 0 0 0 1.46-1.3 1.34 1.34 0 0 0-1.57-1.29zM1490.42 61.87V54h4.16v.87h-3.15v2.63h2.62v.87h-2.62V61h3.57v.87zM1498.9 61.94a3.68 3.68 0 0 1-2-.56l-.12-1a3.56 3.56 0 0 0 2.19.75 1.39 1.39 0 0 0 1.57-1.32c0-.79-.45-1.22-1.47-1.58-1.38-.46-2.07-1.14-2.07-2.23a2.08 2.08 0 0 1 2.35-2 3.16 3.16 0 0 1 1.66.44l-.2.81a2.81 2.81 0 0 0-1.49-.45 1.24 1.24 0 0 0-1.4 1.14c0 .64.43 1 1.34 1.35 1.37.49 2.24 1.11 2.24 2.45s-.99 2.2-2.6 2.2zM1507 62a4.06 4.06 0 1 1 4.13-4.07A4 4 0 0 1 1507 62zm0-7.23a3.19 3.19 0 1 0 3.11 3.18 3.09 3.09 0 0 0-3.11-3.17zM1517.51 61.87l-2.51-3.51h-1.07v3.51h-1V54h2.26a2.2 2.2 0 0 1 2.34 2.16 2.06 2.06 0 0 1-1.46 2l2.72 3.68zm-2.51-7h-1.09v2.62h1.09a1.32 1.32 0 0 0 1.46-1.3 1.34 1.34 0 0 0-1.46-1.29zM1522.66 54.9v7h-1v-7H1519V54h6.22v.87zM1529.16 61.94a3.67 3.67 0 0 1-2-.56l-.12-1a3.57 3.57 0 0 0 2.19.75 1.39 1.39 0 0 0 1.57-1.32c0-.79-.46-1.22-1.48-1.58-1.38-.46-2.07-1.14-2.07-2.23a2.09 2.09 0 0 1 2.35-2 3.15 3.15 0 0 1 1.66.44l-.2.81a2.79 2.79 0 0 0-1.49-.45 1.24 1.24 0 0 0-1.4 1.14c0 .64.43 1 1.34 1.35 1.36.49 2.24 1.11 2.24 2.45s-.98 2.2-2.59 2.2zM1425.11 40.3c0 4.92 1.79 6.49 3.4 6.49 1.37 0 3.44-1.05 3.44-6.56 0-2-.2-6.6-3.34-6.6-2.08 0-3.51 2-3.51 6.65zm-2.92-.08c0-5.49 3.06-8.17 6.49-8.17 2.81 0 6.19 1.81 6.19 8 0 5.43-2.78 8.39-6.44 8.39-3.42 0-6.24-2.69-6.24-8.16zM1440.34 32.27l2.57 11.29 2.72-11.29h1.69l2.64 11.25 2.59-11.25h1.91l-3.94 15.9h-1.72l-2.72-11.61-2.81 11.61h-1.72l-3.94-15.9h2.73zM1460.36 32.27l7.29 11.27V32.27h1.94v15.9h-1.77l-7.3-11.27v11.27h-1.93v-15.9h1.77zM1483.07 32.27v1.68h-5.69v5.16h5.31v1.65h-5.31v5.65h5.78v1.76h-8.44v-15.9h8.35zM1403.78 34.45l-.13-.06a5.92 5.92 0 0 0-2.58-.66c-2.39 0-4.2 2.38-4.2 6.51 0 4.59 2 6.48 4 6.48a5.38 5.38 0 0 0 2.68-.87l.12-.07.79 1.5-.12.06a8 8 0 0 1-3.91 1.07c-4.33 0-6.54-3.73-6.54-8.11s2.41-8.24 6.91-8.24a7.66 7.66 0 0 1 3.51.79l.12.06zM1411.58 33.9v5.65h.8c1.27 0 3.4 0 3.4-3.06 0-1.34-.45-2-1-2.28a2.91 2.91 0 0 0-1-.28 11.47 11.47 0 0 0-1.15 0zm1.12-1.63a7.51 7.51 0 0 1 4 .67 3.67 3.67 0 0 1 1.84 3.26 4.39 4.39 0 0 1-3.73 4.43l5.2 7.54h-3.11l-4.57-7.17h-.76v7.14h-2.63V32.27zM1562 33a1.52 1.52 0 0 1 .46 1.12 1.54 1.54 0 0 1-.46 1.13 1.57 1.57 0 0 1-2.23 0 1.55 1.55 0 0 1-.46-1.13A1.57 1.57 0 0 1 1562 33m.18-.18a1.83 1.83 0 1 0 .54 1.29 1.77 1.77 0 0 0-.54-1.29m-1 1.21a.89.89 0 0 1-.34 0h-.32v-.73h.3a.91.91 0 0 1 .43.07.31.31 0 0 1 .13.29.3.3 0 0 1-.21.31m-1 1.09h.36v-.76h.28a.81.81 0 0 1 .39.07c.13.07.19.23.19.46v.26h.34a.29.29 0 0 1 0-.13v-.3a.55.55 0 0 0-.11-.31.48.48 0 0 0-.35-.19.82.82 0 0 0 .29-.1.44.44 0 0 0 .2-.4.5.5 0 0 0-.31-.51 1.53 1.53 0 0 0-.55-.07h-.7zM1552.45 41.4h3.38l-1.67-5.34zm3-9.14l5.44 15.9H1558l-1.69-5.2H1552l-1.65 5.2h-2l5.39-15.9zM1497.62 33.9v5.63h1.38c1.54 0 3.18-.26 3.18-3.09 0-1.34-.46-2-1-2.25a2.8 2.8 0 0 0-1-.26h-1.1zm1.57-1.63c1.84 0 3.11 0 4.25.79a3.92 3.92 0 0 1 1.62 3.37c0 2.38-1.56 4.78-5.5 4.78h-1.94v7H1495V32.27zM1511.2 32.27v14.15h5.58v1.75h-8.24v-15.9h2.66zM1523.53 41.4h3.39l-1.67-5.34zm3-9.14l5.44 15.9h-2.83l-1.69-5.2H1523l-1.65 5.2h-2l5.39-15.9zM1545.32 32.27v1.35l-7.62 12.79h8.04v1.76h-11.17v-1.36l7.67-12.86h-7.2v-1.68h10.28zM1479.45 10c-.92 2.64-6 .16-8.61-1.06-1.93-.91-3.26-1.65-4-2.08l1.91 2.43h-2.59c.75.43 2.07 1.17 4 2.06 2.62 1.23 7.69 3.7 8.62 1.06 1.59-4.52 10.79 1.08 11.7 1.64l.71-2.41c-1.02-.64-10.19-6.13-11.74-1.64z"/><path class="cls-2" d="M1478.16 14.36c-.92 2.63-6 .16-8.62-1.06a56.62 56.62 0 0 1-4-2.08l1.91 2.43h-2.59c.75.43 2.06 1.17 4 2.05 2.61 1.23 7.69 3.7 8.61 1.06 1.6-4.54 10.87 1.13 11.71 1.65l.71-2.41c-.94-.56-10.14-6.16-11.73-1.64z"/><path class="cls-2" d="M1476.86 18.71c-.92 2.64-6 .16-8.62-1.06a49.05 49.05 0 0 1-4-2.08l1.91 2.43h-2.59c.75.43 2.06 1.17 4 2.05 2.62 1.22 7.69 3.7 8.62 1.06 1.6-4.56 11 1.18 11.72 1.66l.71-2.41c-.88-.52-10.15-6.19-11.75-1.65z"/><path class="cls-2" d="M1477.36 2.94c-15.37 0-27.82 5.34-27.82 11.92s12.46 11.93 27.82 11.93 27.82-5.34 27.82-11.93-12.46-11.92-27.82-11.92zm0 22.84c-13.71 0-24.82-4.88-24.82-10.91S1463.64 4 1477.35 4s24.82 4.88 24.82 10.91-11.11 10.87-24.82 10.87z"/><path class="cls-1" d="M696 0h172v66H696z"/><path class="cls-2" d="M713.45 58.45h137.1V7.55h-137.1zm2.33-48.57h132.43v46.24H715.79z"/><path class="cls-2" d="M750.15 20.85V45.1l1.9.26v1.42h-9.41v-1.42l2.02-.26V34.06h-12.03V45.1l1.86.26v1.42h-9.25v-1.42l1.86-.26V20.85l-1.86-.25v-1.38h9.25v1.38l-1.86.25v10.37h12.03V20.85l-2.02-.25v-1.38h9.41v1.38l-1.9.25zM762.98 45.27l1.78.25v1.26h-8.66v-1.26l1.78-.25v-16.6l-1.78-.25v-1.25h6.88v18.1zM768.51 45.56l1.74-.24V20.68l-1.74-.24v-1.22h6.89v26.1l1.77.24v1.22h-8.66v-1.22zM787.68 27.17h4.64V29h-4.64v11.67c0 3 .63 4 3.37 4a11.35 11.35 0 0 0 2.75-.21v1.34a19.43 19.43 0 0 1-6.37 1.2c-4 0-4.9-1.8-4.9-5.23V29h-3.63v-1.83h3.76v-4.1l5-1.51zM809.93 37c0-6.19-1.86-8.91-4.86-8.91s-4.77 2.63-4.77 8.91 1.86 8.82 4.77 8.82c3.13 0 4.86-2.46 4.86-8.82m5.66.12c0 6.1-4.13 10.2-10.64 10.2-6.29 0-10.3-2.68-10.3-10.2 0-6.32 4.14-10.54 10.64-10.54s10.3 3.81 10.3 10.54M839.06 45.52v1.25h-8.66v-1.25l1.73-.25V34.11c0-3.09-1.14-4.47-3.51-4.47a8.69 8.69 0 0 0-4.09 1.63v14l1.77.25v1.25h-8.69v-1.25l1.77-.25V28.8l-1.77-.25v-1.38h6.92v2.72c2.15-1.71 4.22-3.1 7.13-3.1 3.89 0 5.62 2.26 5.62 6.69v11.79zM763.23 22a2.79 2.79 0 1 1-2.79-2.76 2.77 2.77 0 0 1 2.79 2.76"/><path class="cls-1" d="M1566 0h172v66h-172z"/><path class="cls-2" d="M1697.51 25.83s-.18-.42-.43-.42a.35.35 0 0 1-.35.33.33.33 0 0 1-.07.32c.17.83-.41 1-.41 1s.07-.42-.1-.56a.68.68 0 0 1-.59 0 .32.32 0 0 1-.31.22.65.65 0 0 1-.65.66s.2-.41.09-.56-.62-.25-.66-.55c-1.52-.12-1.7 1-3.18 1.64.08-.31-.07-.52 0-.74-.29.09-.86.93-1.43 1 .16-.45-.19-.65-.2-1.07a4.87 4.87 0 0 1-1.76 1.21c.26-1.21-1-1.3-1.25-1.38a12.68 12.68 0 0 1-2.8 0c-.79.86 3.69-.19 3.69 2.53 0 2.48-3.28 1.93-3.28 3.15a.83.83 0 0 0 .78.79c.23 0 .85-.46 1.26-.5a.69.69 0 0 1 .62.17c.82-.31 1 .31 1 .31a.45.45 0 0 0-.51.17.89.89 0 0 1 .51.57.66.66 0 0 1 .73.7.66.66 0 0 0-.65-.16c-.06.37-.23.46-.23.46h-4.71c-.65 0-.72-1-1.14-1.16s-.85.06-1.48-.19c.64-.43.65-1 1.08-1.33a5.67 5.67 0 0 0-1.09-.2c.56-.82 2-1.09 2-1.82s-1.5-.87-2-1.19a2.34 2.34 0 0 1-2 2.25c-.83.23-1.27 1-1.57 1.23 0-.42-.16-.49-.28-.95-.24.34-.86.56-1.26 1.13a.56.56 0 0 0-.44-.73c-.57 0-1.62.8-1.62 1.09 0 .13.34.15.53.15a1.15 1.15 0 0 1 .9-.43c.45 0 .62.17.68.27a.84.84 0 0 1 .9.48s-.42-.17-.42.16a.57.57 0 0 1 .41.33.62.62 0 0 1 .67.64c-.22-.23-.47-.25-.58-.14a.49.49 0 0 1-.34.41h-5a.85.85 0 0 1-.87-.89c0-.75.8-1 1.06-1.46a2.34 2.34 0 0 0-1.31-.25c.28-.61 1.64-.74 2.38-1.21a3.1 3.1 0 0 0-1.23-.4c.68-.3 1.13-.91 2.29-1a2.1 2.1 0 0 0 1.48-1.1 25.62 25.62 0 0 0 .78-2.57s-4.34 2.07-7.36 2.07c-4.58 0-6-3.12-6.06-5.6-.07-4.79 4.35-6.44 6.26-7.63-1.77-1.38-3-2.94-3-5.09 0-3.77 3.86-5.3 6.69-5.3s6.08 1.49 6.08 5-5.17 5.61-5.17 5.61a7 7 0 0 0 1.31.78c2.4-.37 3.67 1.91 5 2.9a3 3 0 0 0-1.23 0 11.51 11.51 0 0 1 1.72 2.12 9.65 9.65 0 0 0-2.7-.69 5.07 5.07 0 0 1 .31 1.67c-1.35-1.87-4.86-1.61-4.6-4.41a19.05 19.05 0 0 0-2.05-1.08s-3.84 1.56-3.84 4.94a4.29 4.29 0 0 0 4.55 4.23 6.15 6.15 0 0 0 3.66-1.27 9.64 9.64 0 0 1 5.13-1.6c2.29 0 3.09-.32 3.09-1 0-.34-.31-.52-.76-.52a7.19 7.19 0 0 1-1.65.23c.93-.49.64-1.06 1.09-1.64-.19-.36-1.39.05-1.39.05a7.4 7.4 0 0 1 1.15-2.25c-.67.19-1.19 0-1.67.14.66-.63.87-2.09 1.91-2.53-1.06.18-1-.05-1.82.15.75-.49 1.4-2.28 2.86-2.37-.16-.28-1.38-.29-1.82-.71 1-.07 1.87-1.05 3.48-.92-.89-.48-.86-1.07-1.25-1.51 1.1.54 2.81.26 3.53.88.69-1.26 2-.64 3-.72-.44.43-1 .5-1 .88s2.1.71 2 1.22a5.68 5.68 0 0 1 1.75.56c1 .07.61.78.41.89.25.44-.2 1-.75 1.35-.08.38-.58.47-.58.47s.12-.32 0-.42c-.91 0-1.86-.66-2 0a1.59 1.59 0 0 0 0 .26 1.7 1.7 0 0 1 .39-.05c.57 0 1.71.47 2.58.44 1.34-.05 1.18-1.79 2.52-1.72-1.12.51.05 2.22-1.84 2.37-.94.07-2.39-.73-3.19-.72a2.93 2.93 0 0 0-.38 0c.31.79 1.43 1.06 1.76.43.17.11.08.33.08.33.22 0 .55.06.55.5a.93.93 0 0 1-.35.7.83.83 0 0 1-.71.61c.15-.27.17-.82-1-.82s-.88 1-.34 1.22c1.66.51 1.77 1.23 2.5 1.55 0 .22-.88 0-.88.21s.33.29.74.29a2.45 2.45 0 0 0 2-2.49 1.21 1.21 0 0 1 1.24-1.62.9.9 0 0 1 1-.62.78.78 0 0 0-.31.73 1 1 0 0 1 1.15.48s.89 0 .89.66a.68.68 0 0 0-.75-.06.59.59 0 0 1-.17.5.71.71 0 0 1 .1.57c.63.37.16 1.06.16 1.06s-.07-.47-.37-.44a1 1 0 0 1-.85.48 6.31 6.31 0 0 1-1 1.38c.56.12.48.29.93.4a4.58 4.58 0 0 1-1.42.54 1.35 1.35 0 0 0 .61.42c-.56.56-1.83.31-1.83.31a1.36 1.36 0 0 0 .5.62 14 14 0 0 1-2.59-.13c-1 0-.92 1-.07 1 1.15 0 3-.75 3.94-.75a1.6 1.6 0 0 1 1.07.25c.84-.07 1.05.46 1.08.74.74.51.34 1.08.34 1.08zm-29.05-16.29a5.53 5.53 0 0 0 2.08 4.05s3-1.51 3.34-4.07a2.44 2.44 0 0 0-2.51-3 2.83 2.83 0 0 0-2.91 3.02zm21.11 3.66c.28-.1-.11-.24 0-.49s.45-.25.45-.37a2.25 2.25 0 0 0-1.8.5c.67.16 1.03.48 1.35.36zm2.27-.09c-.14 0-.17.11-.17.2 0 .35.68.49.68.31s-.13-.15-.26-.27-.09-.23-.25-.23zM1622.76 11.5c-2.16-2.12-3.1-2.63-5.13-2.63-3.61 0-6 2.8-6 8 0 5 2.32 7.69 5.69 7.69 1.89 0 3.31-.74 5.23-2.7l2.5 2.7a9.84 9.84 0 0 1-8.33 3.91c-6.11 0-9.87-4.08-9.87-11.7 0-7.45 4.2-11.74 10.68-11.74a8.86 8.86 0 0 1 7.72 3.61zM1627.58 9V5.06h4.35V9zm.07 19V10.56h4.22V28zM1640.53 28.36c-3.17 0-4.62-1.45-4.62-4.59v-9.84h-2.26v-3.37h2.29l.17-4.68 4.11-.81v5.49h3.52v3.37h-3.52v8.4a6.59 6.59 0 0 0 .1 1.45 1.39 1.39 0 0 0 1.42 1c.67 0 1.15-.2 2.43-1.08l1.08 3a7 7 0 0 1-4.72 1.66zM1651.57 35.38h-4.38c1.92-3.92 3.09-6.87 3.43-7.71l-5.82-17.11h4.72s2.42 8.72 2.69 9.68.57 2.33.57 2.33c.28-.84.28-.69.67-1.74 1.35-3.63 4-10.28 4-10.28h4.55zM1673.91 60.82a25.6 25.6 0 0 1-.17-3c-1.73 2.41-3.33 3.3-5.88 3.3-4.28 0-6.63-3.23-6.63-9 0-6 2.69-9.42 7.48-9.42a5.49 5.49 0 0 1 4.83 2.11c-.07-.88-.07-1.22-.07-2.11v-5.14h4.35v21.19a13.76 13.76 0 0 0 .2 2.11zm-.56-11.66a3.85 3.85 0 0 0-3.67-3.07c-2.44 0-4.05 2.07-4.05 5.78s1.26 5.61 3.27 5.61a4.82 4.82 0 0 0 3.51-2 6.46 6.46 0 0 0 1.21-4.06 6.57 6.57 0 0 0-.28-2.26zM1623.56 44c-1.9-2-3.26-2.65-5.37-2.65-3.91 0-6.59 2.86-6.59 8.06 0 5.44 2.54 8.23 6.52 8.23a6.3 6.3 0 0 0 3.77-1V50h4.05v9a15.36 15.36 0 0 1-8.3 2.38c-6.66 0-10.83-4.21-10.83-11.83 0-7.45 4.4-11.9 11-11.9a10 10 0 0 1 8.26 3.67zM1640.16 60.81c-.07-.71-.07-.78-.1-1.73a4.93 4.93 0 0 1 0-.81 8 8 0 0 1-6 3c-3.2 0-5.2-2.08-5.2-5.37V43.23h4.39v11.46c0 1.8.68 2.71 2 2.75 1.52 0 4.56-2.23 4.56-5.34v-8.87h4.39v14.11c0 .31 0 .78.07 1.5a14 14 0 0 0 .17 2zM1647 41.53v-4h4.39v4zm.07 19.28V43.23h4.25v17.58zM1654.41 60.81V37.55h4.32v23.26zM1686.67 61.29a12.78 12.78 0 0 1-6.66-1.8l1.36-3.26a9 9 0 0 0 5.07 1.74c1.8 0 2.86-.78 2.86-2.11s-.78-1.84-2.86-2.14c-2.35-.31-2.69-.41-3.6-1a4.63 4.63 0 0 1-2.11-4.11c0-3.64 2.65-5.92 6.87-5.92a12.06 12.06 0 0 1 6.09 1.5l-1.12 3.43a9 9 0 0 0-4.76-1.46c-1.77 0-2.69.68-2.69 2a1.33 1.33 0 0 0 .72 1.29 3.59 3.59 0 0 0 .92.3l1.16.17c4.08.54 5.78 2.11 5.78 5.27-.02 3.81-2.57 6.1-7.03 6.1z"/><path class="cls-1" d="M174 0h172v66H174z"/><path class="cls-2" d="M239.67 49.43h-6.85a4.74 4.74 0 0 1-1.8-.24c-.3-.18-.3-1.32-.3-2.1v-4.58c0-.78-.12-1.38.42-1.75a4.68 4.68 0 0 1 1.5-.18h3.84c.78 0 .78-.36.78-2.89s-.06-3-.78-3h-4a2 2 0 0 1-1.32-.24c-.48-.36-.36-1-.36-1.56v-4.65c0-.78 0-.72.3-1.14.18-.24.9-.3 1.38-.3h7.15c.78 0 .78-.36.78-3.07 0-2.35 0-2.83-.72-2.83h-13.61c-.61 0-1 0-1.38.48s-.42.54-.42 1v30.35c0 1-.12 1.93.36 2.35s1.44.24 2.4.24h12.69c.66 0 .72-.24.72-3s-.06-2.89-.78-2.89zM295.85 49.44H289a4.79 4.79 0 0 1-1.81-.24c-.3-.18-.3-1.32-.3-2.1v-4.58c0-.78-.12-1.39.42-1.75a4.68 4.68 0 0 1 1.5-.18h3.84c.78 0 .78-.36.78-2.89s-.06-3-.78-3h-4a2 2 0 0 1-1.32-.24c-.48-.36-.36-1-.36-1.56v-4.65c0-.78 0-.72.3-1.14.18-.24.9-.3 1.38-.3h7.15c.78 0 .78-.36.78-3.07 0-2.35 0-2.83-.72-2.83h-13.6c-.61 0-1 0-1.38.48s-.42.54-.42 1v30.35c0 1-.12 1.93.36 2.36s1.44.24 2.4.24h12.69c.66 0 .72-.24.72-3s-.06-2.9-.78-2.9zM220.83 39.35c-1.2-1.69-3.19-1.87-3.19-2s1.68-.54 2.77-1.92a6.38 6.38 0 0 0 1.14-4.09V30a9.09 9.09 0 0 0-2.35-6.56 10.33 10.33 0 0 0-7.2-2.54h-7c-.66 0-1.08-.06-1.44.3a1.1 1.1 0 0 0-.36.74V52.4c0 2.08.06 2.2.36 2.63s1 .24 1.8.3c1.44.06 4 0 5.84 0h1.14a9.56 9.56 0 0 0 7-2.7 8.67 8.67 0 0 0 2.47-6.44v-3.11a6.06 6.06 0 0 0-.98-3.73zM209.58 28.3a1.25 1.25 0 0 1 .24-.84c.18-.24.66-.24 1.38-.24h1.13a2.15 2.15 0 0 1 1.93.72 4.75 4.75 0 0 1 .84 3.31v.29a3.15 3.15 0 0 1-.84 2.35 2.86 2.86 0 0 1-2.17.9H211c-.48 0-.78.06-1.08-.18s-.3-.6-.3-1.15zm5.77 17.22a3.23 3.23 0 0 1-.84 2.64 2.94 2.94 0 0 1-2.17.84h-1.13a5.92 5.92 0 0 1-1.21 0c-.42-.06-.42-.72-.42-1.26v-6c0-1.08.24-1.14 2.16-1.14h1.14c1.75 0 2.47 1.56 2.47 3.79zM316.55 39.86c-1.14-1.5-3.06-1.62-3.06-1.86s1.86-.54 2.95-2.17a6.22 6.22 0 0 0 1-4V30a8.76 8.76 0 0 0-2.44-6.63 10.08 10.08 0 0 0-7-2.47h-7.09c-.78 0-1.21-.12-1.57.36-.18.3-.24.9-.24.69v31.23c0 2.14.48 2.14 2.95 2.14 3 0 3.49 0 3.49-1.14V41.9c0-.84.24-.78 2.34-.78H309c1.5 0 2.22 1.68 2.22 3.79v9.39c0 1.08.24 1 3.13 1s3.3 0 3.3-1V43.65a5.75 5.75 0 0 0-1.1-3.79zM311 32.1a3.25 3.25 0 0 1-.84 2.35 3 3 0 0 1-2.17.9h-1.14a2.28 2.28 0 0 1-1.08-.12c-.3-.24-.3-.66-.3-1.2V28.3a1.63 1.63 0 0 1 .18-.78c.24-.3.66-.3 1.2-.3H308c1.38 0 1.74.24 2.17.72a4.77 4.77 0 0 1 .84 3.31zM260.85 0h-1c-4.69 0-8 2.62-8 7.85v3.08c0 4.75 3.27 7.8 8 7.8h1c4.69 0 8-3.05 8-7.8V7.85c-.03-5.23-3.31-7.85-8-7.85zm2.36 9.49c0 1.82-.41 3.88-2.36 3.88h-1c-1.94 0-2.36-2.06-2.36-3.88v-.08c0-2.18.35-3.94 2.36-3.94h1c2 0 2.36 1.77 2.36 3.94zM278.05 23.76c0-2.29-.06-2.83-.78-2.83H243.4c-.72 0-.78.54-.78 2.83v.18c0 2.59.08 2.89.72 2.89h5.17a6.87 6.87 0 0 1 1.75.12 1.2 1.2 0 0 1 .39.8 2.75 2.75 0 0 1 0 .34v26.66c0 .59.55.59 3.07.59h.42c2.53 0 3.07 0 3.07-.6V28.09v-.26a1.26 1.26 0 0 1 .4-.88h.07a15.69 15.69 0 0 1 2.24-.1h.73a15.73 15.73 0 0 1 2.24.1h.11a1.27 1.27 0 0 1 .4.88v26.92c0 .6.54.6 3.07.6h.42c2.52 0 3.06 0 3.07-.59V28.08v-.34a1.2 1.2 0 0 1 .39-.8 6.86 6.86 0 0 1 1.74-.12h5.18c.65 0 .72-.3.72-2.89v-.18z"/></g></svg>