<svg id="Logos" xmlns="http://www.w3.org/2000/svg" viewBox="0 0 172 66"><defs><style>.cls-2{fill:#fff}</style></defs><path fill="none" d="M0 0h172v66H0z"/><path class="cls-2" d="M51.27 43.75l1.94-2.33a6.85 6.85 0 0 0 4.46 1.82c1.34 0 2.16-.53 2.16-1.41 0-.83-.51-1.26-3-1.9-3-.77-5-1.6-5-4.57 0-2.71 2.18-4.51 5.23-4.51a8.65 8.65 0 0 1 5.55 1.9l-1.71 2.48a7 7 0 0 0-3.89-1.47c-1.26 0-1.92.58-1.92 1.3 0 1 .64 1.3 3.22 2 3 .79 4.74 1.88 4.74 4.49 0 3-2.26 4.64-5.49 4.64a9.51 9.51 0 0 1-6.29-2.44zM69.59 34H65v-3h12.43v3h-4.55v11.93h-3.29zM78.53 38.49a7.95 7.95 0 0 1 15.88 0 7.95 7.95 0 0 1-15.88 0zm12.45 0a4.54 4.54 0 0 0-4.53-4.7A4.47 4.47 0 0 0 82 38.41a4.54 4.54 0 0 0 4.53 4.7A4.47 4.47 0 0 0 91 38.49zM96.79 31h6.83a6 6 0 0 1 4.38 1.49 4.7 4.7 0 0 1 1.28 3.42 4.64 4.64 0 0 1-3.2 4.64l3.65 5.34h-3.84l-3.2-4.79h-2.58v4.79h-3.32zm6.62 7.26c1.6 0 2.52-.85 2.52-2.12 0-1.41-1-2.14-2.58-2.14h-3.27v4.29zM112.28 31h11.27v2.9h-8v3h7v2.93h-7V43h8.11v2.93h-11.38zM126.14 31h6.94a5.39 5.39 0 0 1 3.92 1.3 3.43 3.43 0 0 1 1 2.54 3.48 3.48 0 0 1-2 3.23c1.73.66 2.8 1.67 2.8 3.67 0 2.73-2.22 4.1-5.59 4.1h-7.11zm6.23 6c1.45 0 2.37-.47 2.37-1.58 0-1-.77-1.54-2.16-1.54h-3.25V37zm.88 6c1.45 0 2.33-.51 2.33-1.62 0-1-.75-1.62-2.43-1.62h-3.8V43zM140.5 38.49a7.95 7.95 0 0 1 15.88 0 7.95 7.95 0 0 1-15.88 0zm12.45 0a4.54 4.54 0 0 0-4.53-4.7 4.47 4.47 0 0 0-4.48 4.66 4.54 4.54 0 0 0 4.53 4.7 4.47 4.47 0 0 0 4.48-4.66zM161.54 38.32l-5-7.35h3.84l3.12 4.85 3.19-4.82h3.74l-5 7.31 5.21 7.65h-3.84l-3.35-5.13-3.37 5.13h-3.74zM51.39 55.89l.53-.62a3.57 3.57 0 0 0 2.57 1.06c1 0 1.67-.54 1.67-1.28 0-.7-.38-1.09-2-1.43-1.73-.38-2.52-.93-2.52-2.17a2.22 2.22 0 0 1 2.47-2.05 3.91 3.91 0 0 1 2.64.92l-.49.65a3.3 3.3 0 0 0-2.17-.82c-1 0-1.6.54-1.6 1.21 0 .71.39 1.11 2 1.46S57 53.8 57 55c0 1.29-1.07 2.13-2.56 2.13a4.39 4.39 0 0 1-3.05-1.24zM62 49.48h5.43v.77h-4.57v2.57H67v.77h-4.1v2.63h4.63V57H62zM72.45 49.48h.85v6.73h4.23V57h-5.08zM82.35 49.48h5.39v.78H83.2v2.68h4.06v.77H83.2V57h-.85zM98.63 55.89l.53-.62a3.57 3.57 0 0 0 2.57 1.06c1 0 1.67-.54 1.67-1.28 0-.7-.38-1.09-2-1.43-1.73-.38-2.52-.93-2.52-2.17a2.22 2.22 0 0 1 2.47-2.05 3.91 3.91 0 0 1 2.64.92l-.49.65a3.3 3.3 0 0 0-2.17-.82c-1 0-1.6.54-1.6 1.21 0 .71.39 1.11 2 1.46s2.45 1 2.45 2.13c0 1.29-1.07 2.13-2.56 2.13a4.39 4.39 0 0 1-2.99-1.19zM111.06 50.26h-2.52v-.78h5.9v.78h-2.52V57h-.86zM118.44 53.25a3.83 3.83 0 1 1 7.66 0 3.83 3.83 0 1 1-7.66 0zm6.78 0a3 3 0 0 0-3-3.1 3 3 0 0 0-2.94 3.08 3 3 0 0 0 3 3.1 3 3 0 0 0 2.94-3.08zM131.15 49.48h3.23a3 3 0 0 1 2.13.75 2.08 2.08 0 0 1 .58 1.48 2.2 2.2 0 0 1-2 2.19l2.27 3.1h-1l-2.18-2.92H132V57h-.85zm3.15 3.83c1.13 0 1.93-.58 1.93-1.55 0-.92-.71-1.48-1.92-1.48H132v3zM144.94 49.42h.79l3.42 7.58h-.91l-.88-2h-4.09l-.89 2h-.87zm2.06 4.82l-1.71-3.83-1.72 3.83zM153.12 53.25a3.77 3.77 0 0 1 3.76-3.89 4 4 0 0 1 2.8 1l-.55.64a3.19 3.19 0 0 0-2.28-.86 2.93 2.93 0 0 0-2.85 3.07 2.9 2.9 0 0 0 3 3.12 3.53 3.53 0 0 0 2.17-.75v-1.84h-2.28V53h3.1v3a4.55 4.55 0 0 1-3 1.15 3.68 3.68 0 0 1-3.87-3.9zM165.11 49.48h5.43v.77H166v2.57h4.1v.77H166v2.63h4.63V57h-5.48zM23.72 3.21A15.18 15.18 0 0 0 8.56 18.37v6.07a1.8 1.8 0 0 0 1.8 1.8h1.56a1.8 1.8 0 0 0 1.8-1.8 1.83 1.83 0 0 0 0-.39v-.17l-.06-.14a1.8 1.8 0 0 0-1.09-1h-.12V22a1.15 1.15 0 0 1 1.12-1.16s.16-.13.18-.86v-1.61a10 10 0 1 1 20.08 0v9l5.11 1.25V18.37A15.18 15.18 0 0 0 23.72 3.21zm13.8 15.14a.16.16 0 0 1-.15.16.15.15 0 0 1-.16-.14 13.56 13.56 0 0 0-27 0 .16.16 0 0 1-.16.14.16.16 0 0 1-.15-.16v-.22a13.81 13.81 0 1 1 27.61 0z"/><path class="cls-2" d="M43.06 35.13a.26.26 0 0 0 .23-.26V31a.26.26 0 0 0-.21-.25l-4-.82a.26.26 0 0 0-.3.18.25.25 0 0 0 0 .14l-14.77-3-15.44 3.1a.25.25 0 0 0 0-.13.26.26 0 0 0-.3-.19l-4 .82a.26.26 0 0 0-.21.25v3.78a.26.26 0 0 0 .25.26.25.25 0 0 0 .14 0V53a.25.25 0 0 0-.14 0 .26.26 0 0 0-.25.26v3.63a.26.26 0 0 0 .2.25l4 .85h.05a.26.26 0 0 0 .26-.26.25.25 0 0 0 0-.06l15.49 3.3 14.77-3.14a.25.25 0 0 0 0 .14.26.26 0 0 0 .24.18h.05l4-.85a.26.26 0 0 0 .2-.25v-3.84a.26.26 0 0 0-.26-.26L43 53V35.11zM6.32 55.44V32.35l1-.16.26.07V55.6h-.3zm3.81.69H9.8l-1-.2v-24l1-.17.32.09zm2.82-24.73v25.3h-.35l-1.07-.22v-25l1.08-.18.35.09zm3-.48v26.44h-.35l-1.15-.24V31l1.17-.19.38.1zM19.3 58h-.41l-1.27-.26V30.47l1.27-.21.42.1zm3.18.75l-1.39-.29V29.9l1.39-.23zm18.41-3.13V32.18l.68.12.25.31v22.83zm-5.35 1.1V31.3l1.08.18v25zm-3 .62V30.81l1.16.19v26.11zm-3.3-27.08l1.27.21v27.29l-1.27.24zm9.08 25.89V31.77l1 .16V56l-1 .2zM25.65 29.67l1.35.23v28.57l-1.39.29z"/></svg>