<svg id="Layer_1" data-name="Layer 1" xmlns="http://www.w3.org/2000/svg" viewBox="0 0 52 52"><defs><style>.cls-2{fill:#fff}</style></defs><circle cx="26" cy="26" r="26" fill="#ff682c"/><path class="cls-2" d="M26 12.49c4.38 0 4.9 0 6.63.1a9 9 0 0 1 3 .57 5.45 5.45 0 0 1 3.12 3.13 9.15 9.15 0 0 1 .57 3.06c.08 1.74.1 2.26.1 6.66s0 4.92-.1 6.66a9.15 9.15 0 0 1-.57 3.06 5.45 5.45 0 0 1-3.12 3.13 9 9 0 0 1-3 .57c-1.73.08-2.25.1-6.63.1s-4.9 0-6.63-.1a9 9 0 0 1-3-.57 5.45 5.45 0 0 1-3.12-3.13 9.15 9.15 0 0 1-.57-3.06c-.08-1.74-.1-2.26-.1-6.66s0-4.92.1-6.66a9.15 9.15 0 0 1 .57-3.06 5.45 5.45 0 0 1 3.12-3.13 9 9 0 0 1 3-.57c1.73-.08 2.25-.1 6.63-.1m0-3c-4.46 0-5 0-6.77.1a12 12 0 0 0-4 .77 8.41 8.41 0 0 0-4.8 4.82 12.14 12.14 0 0 0-.76 4c-.08 1.76-.1 2.32-.1 6.8s0 5 .1 6.8a12.14 12.14 0 0 0 .76 4 8.41 8.41 0 0 0 4.8 4.82 12 12 0 0 0 4 .77c1.75.08 2.31.1 6.77.1s5 0 6.77-.1a12 12 0 0 0 4-.77 8.41 8.41 0 0 0 4.8-4.82 12.14 12.14 0 0 0 .76-4c.08-1.76.1-2.32.1-6.8s0-5-.1-6.8a12.14 12.14 0 0 0-.76-4 8.41 8.41 0 0 0-4.8-4.82 12 12 0 0 0-4-.77c-1.75-.08-2.31-.1-6.77-.1z"/><path class="cls-2" d="M26 18.05A7.95 7.95 0 1 0 33.91 26 7.93 7.93 0 0 0 26 18.05zm0 13.1A5.16 5.16 0 1 1 31.14 26 5.15 5.15 0 0 1 26 31.16z"/><ellipse class="cls-2" cx="34.76" cy="17.2" rx="1.97" ry="1.98"/></svg>