<svg id="Layer_1" data-name="Layer 1" xmlns="http://www.w3.org/2000/svg" viewBox="0 0 52 52"><defs><style>.cls-2{fill:#fff}</style></defs><circle cx="26" cy="26" r="26" fill="#ff682c"/><path class="cls-2" d="M7.3 26a13 13 0 0 1 21.59-9.74c-1.06 1.16-2.13 2.31-3.29 3.39-2.27-1.38-5-2.43-7.66-1.5a8.18 8.18 0 1 0 5.51 15.4 7.16 7.16 0 0 0 4.21-4.91c-2.47 0-4.95 0-7.42-.09v-4.41h12.39c.25 3.61-.28 7.47-2.62 10.36-3.21 4.13-9.14 5.35-14 3.72A13 13 0 0 1 7.3 26zM39.59 20.45h3.68v3.7h3.7v3.69h-3.7v3.71h-3.68v-3.7h-3.7v-3.68h3.7c-.02-1.25-.01-2.49 0-3.72z"/></svg>