<svg data-name="Layer 1" xmlns="http://www.w3.org/2000/svg" viewBox="0 0 52 52"><circle cx="26" cy="26" r="26" fill="#fff"/><path d="M26 0a26 26 0 0 0-10.44 49.81 22.83 22.83 0 0 1 .45-6l3.35-14.17a10 10 0 0 1-.83-4.11c0-3.85 2.23-6.73 5-6.73 2.36 0 3.51 1.78 3.51 3.9 0 2.38-1.52 5.93-2.3 9.23a4 4 0 0 0 4.1 5c4.93 0 8.24-6.33 8.24-13.82 0-5.7-3.84-10-10.82-10-7.89 0-12.8 5.88-12.8 12.45a7.5 7.5 0 0 0 1.71 5.1 1.26 1.26 0 0 1 .37 1.45c-.12.48-.41 1.63-.53 2.09a.9.9 0 0 1-1.3.65c-3.6-1.41-5.29-5.39-5.29-9.85 0-7.4 6.23-16.25 18.58-16.25 9.93 0 16.46 7.18 16.46 14.89 0 10.2-5.67 17.82-14 17.82-2.81 0-5.45-1.52-6.35-3.24 0 0-1.51 6-1.83 7.15a21.78 21.78 0 0 1-2.62 5.57A26 26 0 1 0 26 0z" fill="#ff682c"/></svg>