<svg data-name="Layer 1" xmlns="http://www.w3.org/2000/svg" viewBox="0 0 52 52"><defs><clipPath id="a"><path fill="none" d="M8.26 13.47h35.49v25.05H8.26z"/></clipPath></defs><circle cx="26" cy="26" r="26" fill="#ff682c"/><g clip-path="url(#a)"><path d="M43.39 18.88A7.72 7.72 0 0 0 42 15.34a5.07 5.07 0 0 0-3.56-1.51c-5-.36-12.42-.36-12.42-.36s-7.45 0-12.42.36a5.07 5.07 0 0 0-3.6 1.51 7.72 7.72 0 0 0-1.41 3.54 54.08 54.08 0 0 0-.35 5.77v2.7a54.08 54.08 0 0 0 .35 5.77A7.72 7.72 0 0 0 10 36.65a6 6 0 0 0 3.91 1.52c2.84.27 12.07.36 12.07.36s7.46 0 12.42-.37a5.07 5.07 0 0 0 3.6-1.51 7.72 7.72 0 0 0 1.41-3.54 54.16 54.16 0 0 0 .35-5.77v-2.7a54.16 54.16 0 0 0-.35-5.77M20.33 33.15V18.5l14 7.35z" fill="#fff"/></g></svg>